<?xml version="1.0" standalone="no"?>
<!DOCTYPE svg PUBLIC "-//W3C//DTD SVG 1.1//EN" "http://www.w3.org/Graphics/SVG/1.1/DTD/svg11.dtd" >
<svg xmlns="http://www.w3.org/2000/svg">
<metadata></metadata>
<defs>
<font id="skolarregular" horiz-adv-x="1413" >
<font-face units-per-em="2048" ascent="1560" descent="-488" />
<missing-glyph horiz-adv-x="428" />
<glyph unicode="&#xfb01;" horiz-adv-x="1214" d="M43 90q89 9 164 35q8 60 8 115v604q-73 2 -156 26q-11 49 -4 96l160 6v68q0 232 129.5 378.5t319.5 146.5q60 0 163 -30.5t176 -78.5q-12 -134 -55 -288q-51 -14 -98 3q-3 98 -17 191q-100 60 -211 60q-103 0 -134 -27q-34 -29 -52.5 -62t-32.5 -121.5t-14 -234.5v-4h616 q-2 -216 -2 -461v-231q0 -80 6 -154q92 -10 154 -37q0 -66 -13 -92q-73 4 -229 4q-43 0 -126.5 -2t-121.5 -2q-14 28 -14 92q89 9 164 35q8 60 8 115v272q0 208 -4 316q-154 17 -440 17v-564q0 -80 6 -154q92 -10 154 -37q0 -66 -13 -92q-73 4 -229 4q-43 0 -126.5 -2 t-121.5 -2q-14 28 -14 92z" />
<glyph unicode="&#xfb02;" horiz-adv-x="1224" d="M43 90q89 9 164 35q8 60 8 115v604q-73 2 -156 26q-11 49 -4 96l160 6v68q0 232 129.5 378.5t319.5 146.5q81 0 154 -26q84 24 177 30q22 -68 22 -178q0 -12 -2 -172.5t-2 -255.5v-682q0 -80 6 -154q92 -10 154 -37q0 -66 -13 -92q-73 4 -229 4q-43 0 -126.5 -2 t-121.5 -2q-14 28 -14 92q89 9 164 35q8 60 8 115v723q0 108 -4 396q-45 28 -104.5 45.5t-110.5 17.5q-103 0 -134 -27q-34 -29 -52.5 -62t-32.5 -121.5t-14 -234.5v-4q144 -2 252 -12q0 -77 -12 -117h-242v-563q0 -80 6 -154q92 -10 154 -37q0 -66 -13 -92q-73 4 -229 4 q-43 0 -126.5 -2t-121.5 -2q-14 28 -14 92z" />
<glyph unicode="&#xfb03;" horiz-adv-x="1840" d="M43 90q89 9 164 35q8 60 8 115v604q-67 0 -158 26q-11 49 -4 96l162 7v13q0 117 37.5 214t103 161t152.5 99t187 35q160 0 294 -57q124 127 301 127q60 0 163 -30.5t176 -78.5q-12 -134 -55 -288q-51 -14 -98 3q-3 98 -17 191q-100 60 -211 60q-103 0 -134 -27 q-34 -29 -52.5 -62t-32.5 -121.5t-14 -234.5v-4h616q-2 -108 -2 -461v-231q0 -80 6 -154q92 -10 154 -37q0 -66 -13 -92q-73 4 -229 4q-43 0 -126.5 -2t-121.5 -2q-14 28 -14 92q89 9 164 35q8 60 8 115v272q0 209 -4 317q-135 15 -243 15h-197v-563q0 -80 6 -154 q92 -10 154 -37q0 -66 -13 -92q-73 4 -229 4q-43 0 -126.5 -2t-121.5 -2q-14 28 -14 92q89 9 164 35q8 60 8 115v604h-454v-563q0 -80 6 -154q92 -10 154 -37q0 -66 -13 -92q-73 4 -229 4q-43 0 -126.5 -2t-121.5 -2q-14 28 -14 92zM389 973h452v67q0 135 46 244 q-43 29 -111.5 48.5t-137.5 19.5q-44 0 -88.5 -9.5t-62.5 -23.5q-33 -26 -51 -55.5t-31.5 -100.5t-15.5 -190z" />
<glyph unicode="&#xfb04;" horiz-adv-x="1850" d="M45 90q89 9 164 35q8 60 8 115v604q-67 0 -158 26q-11 49 -4 96l162 7v13q0 117 37.5 214t103 161t152.5 99t187 35q160 0 292 -57q125 127 301 127q81 0 154 -26q84 24 177 30q22 -68 22 -178q0 -12 -2 -172.5t-2 -255.5v-682q0 -80 6 -154q92 -10 154 -37 q0 -66 -13 -92q-73 4 -229 4q-43 0 -126.5 -2t-121.5 -2q-14 28 -14 92q89 9 164 35q8 60 8 115v723q0 108 -4 396q-45 28 -104.5 45.5t-110.5 17.5q-103 0 -134 -27q-34 -29 -52.5 -62t-32.5 -121.5t-14 -234.5v-4q144 -2 252 -12q0 -77 -12 -117h-242v-563q0 -80 6 -154 q92 -10 154 -37q0 -66 -13 -92q-73 4 -229 4q-43 0 -126.5 -2t-121.5 -2q-14 28 -14 92q89 9 164 35q8 60 8 115v604h-452v-564q0 -79 6 -153q92 -10 154 -37q0 -66 -13 -92q-73 4 -229 4q-43 0 -126.5 -2t-121.5 -2q-14 28 -14 92zM391 973h450v67q0 134 47 245 q-44 29 -111.5 48t-136.5 19q-44 0 -88.5 -9.5t-62.5 -23.5q-33 -26 -51 -55.5t-31.5 -100.5t-15.5 -190z" />
<glyph horiz-adv-x="2048" />
<glyph horiz-adv-x="2048" />
<glyph unicode="&#xd;" horiz-adv-x="2048" />
<glyph unicode=" "  horiz-adv-x="428" />
<glyph unicode="&#x09;" horiz-adv-x="428" />
<glyph unicode="&#xa0;" horiz-adv-x="428" />
<glyph unicode="!" horiz-adv-x="614" d="M190 92q0 45 34 76t82 31t82.5 -31t34.5 -76q0 -46 -34.5 -80.5t-82.5 -34.5q-47 0 -81.5 34.5t-34.5 80.5zM205 1153q0 111 7 178q84 40 191 0q6 -71 6 -171q0 -278 -47 -798q-48 -27 -103 0q-54 492 -54 791z" />
<glyph unicode="&#x22;" horiz-adv-x="725" d="M90 1579q84 29 188 18q-12 -302 -45 -507q-43 -9 -90 -9q-47 276 -53 498zM423 1579q84 29 188 18q-12 -302 -45 -507q-43 -9 -90 -9q-47 276 -53 498z" />
<glyph unicode="#" horiz-adv-x="1252" d="M96 213q-12 70 0 138h233l47 267h-209q-12 68 0 138h233l40 225q73 0 136 -24l-36 -201h274l40 225q73 0 136 -24l-36 -201h202q12 -72 0 -138h-226l-47 -267h202q12 -70 0 -138h-227l-40 -230q-72 0 -135 24l36 206h-275l-40 -230q-72 0 -135 24l36 206h-209zM469 351 h274l47 267h-274z" />
<glyph unicode="$" horiz-adv-x="912" d="M90 46q0 63 14 144.5t32 129.5q40 8 83 -9q3 -94 15 -175q55 -25 133 -31l33 372q-64 28 -106 51t-87 57.5t-68 77.5t-23 95q0 57 21.5 105.5t56 80t78.5 54t89 32.5t89 10h1l15 163q55 13 104 -7l-15 -160q116 -9 235 -45q0 -59 -12.5 -133.5t-30.5 -121.5q-38 -6 -80 6 q-3 94 -17 157q-29 13 -105 20l-28 -304q49 -21 78 -35t72 -37t69 -45t52 -50t38 -61t12 -71q0 -137 -103.5 -235.5t-274.5 -101.5l-15 -172q-50 -9 -104 9l15 168q-85 8 -160 25.5t-106 36.5zM269 807q0 -43 38.5 -78t109.5 -69l23 261q-83 -4 -128 -22q-14 -6 -28.5 -32 t-14.5 -60zM471 103q56 3 99.5 16t59.5 24q13 8 25.5 47.5t12.5 83.5q0 48 -43 84.5t-124 73.5z" />
<glyph unicode="%" horiz-adv-x="1947" d="M100 908q0 119 44 228.5t130 182.5t193 73q164 0 256 -126t92 -323q0 -87 -26 -173t-72.5 -155t-117 -112t-151.5 -43q-164 0 -256 125.5t-92 322.5zM251 965q0 -75 12 -139t37.5 -117t71 -83.5t106.5 -30.5q30 0 61 9t43 17q22 16 52 92.5t30 173.5q0 75 -12 138.5 t-37.5 117t-71 84t-106.5 30.5q-56 0 -104 -29q-22 -14 -52 -90t-30 -173zM476 15l944 1474q71 -19 112 -68l-946 -1476q-34 7 -64.5 26t-45.5 44zM1132 408q0 119 44 228.5t130 182.5t193 73q164 0 256 -126t92 -323q0 -87 -26 -173t-72.5 -155t-117 -112t-151.5 -43 q-164 0 -256 125.5t-92 322.5zM1283 465q0 -75 12 -139t37.5 -117t71 -83.5t106.5 -30.5q30 0 61 9t43 17q22 16 52 92.5t30 173.5q0 75 -12 138.5t-37.5 117t-71 84t-106.5 30.5q-56 0 -104 -29q-22 -14 -52 -90t-30 -173z" />
<glyph unicode="&#x26;" horiz-adv-x="1593" d="M55 333q0 259 288 422q-97 154 -97 271q0 91 34 166.5t88 121.5t117 70.5t125 24.5q142 0 221 -80.5t79 -190.5q0 -111 -79.5 -207t-242.5 -186q147 -176 414 -378q151 165 209 339q-98 31 -182 39q0 71 16 100q45 0 120.5 -4t121.5 -4q138 0 217 8q15 -30 15 -100 q-61 -29 -163 -39q-91 -236 -246 -419q93 -65 192 -127q38 -24 104 -41t123 -21q19 -48 0 -98q-77 -11 -152 -11q-139 0 -224 42q-71 35 -186 114q-216 -178 -464 -178q-205 0 -326.5 101t-121.5 265zM242 394q0 -124 91.5 -193.5t233.5 -69.5q137 0 283 102 q-269 210 -434 420q-174 -112 -174 -259zM420 1096q0 -114 96 -256q107 59 160.5 132t53.5 144q0 55 -43 102t-107 47q-41 0 -76 -11t-45 -23q-39 -47 -39 -135z" />
<glyph unicode="'" horiz-adv-x="387" d="M90 1579q84 29 188 18q-12 -302 -45 -507q-43 -9 -90 -9q-47 276 -53 498z" />
<glyph unicode="(" horiz-adv-x="715" d="M178 682q0 274 92.5 540.5t298.5 546.5q62 -20 88 -61q-152 -275 -216.5 -524.5t-64.5 -497.5q0 -512 281 -1020q-27 -47 -88 -65q-206 280 -298.5 545t-92.5 536z" />
<glyph unicode=")" horiz-adv-x="715" d="M58 -334q281 508 281 1020q0 248 -64.5 497.5t-216.5 524.5q26 41 88 61q206 -280 298.5 -546.5t92.5 -540.5q0 -271 -92.5 -536t-298.5 -545q-62 20 -88 65z" />
<glyph unicode="*" horiz-adv-x="775" d="M34 995q0 80 45 143q41 -9 89.5 -30t110 -54.5t66.5 -36.5q-96 170 -119 276q69 39 145 32q13 -40 19 -94t7.5 -118.5t2.5 -77.5q93 162 180 241q65 -39 100 -109q-28 -32 -70 -63.5t-104 -69.5t-66 -40q182 5 301 -33q0 -77 -44 -141q-42 8 -91.5 29t-109.5 54t-69 37 q98 -159 122 -277q-68 -38 -144 -32q-14 40 -20.5 93.5t-8 120.5t-2.5 78q-90 -162 -177 -242q-69 40 -102 110q22 25 57 52.5t63 45.5t67 42t50 31q-181 -3 -298 33z" />
<glyph unicode="+" horiz-adv-x="1070" d="M113 405q-14 64 0 135h354v354q67 15 135 0v-354h355q15 -68 0 -135h-355v-355q-64 -14 -135 0v355h-354z" />
<glyph unicode="," horiz-adv-x="614" d="M149 -240q91 117 91 228q0 80 -50 180q60 57 164 80q52 -85 52 -191q0 -96 -48 -187t-147 -159q-20 3 -37 17.5t-25 31.5z" />
<glyph unicode="-" horiz-adv-x="778" d="M121 605q226 33 506 62q32 -65 18 -135q-197 -21 -507 -65q-28 69 -17 138z" />
<glyph unicode="." horiz-adv-x="614" d="M178 98q0 51 37.5 85t91.5 34t91.5 -34t37.5 -85q0 -52 -38 -89.5t-91 -37.5q-54 0 -91.5 37.5t-37.5 89.5z" />
<glyph unicode="/" horiz-adv-x="878" d="M90 -158q267 816 551 1598q76 -7 157 -54q-304 -851 -550 -1598q-102 8 -158 54z" />
<glyph unicode="0" horiz-adv-x="1194" d="M89 482q0 106 44 204t114.5 167.5t163 111.5t186.5 42q150 0 267 -71t179 -190t62 -264q0 -106 -42.5 -204t-112.5 -168t-162.5 -111.5t-190.5 -41.5q-150 0 -267 71t-179 190t-62 264zM250 482q0 -156 100.5 -265.5t246.5 -109.5q147 0 247 109.5t100 265.5t-100 265.5 t-247 109.5q-146 0 -246.5 -109.5t-100.5 -265.5z" />
<glyph unicode="1" horiz-adv-x="762" d="M76 861q69 37 197.5 80t228.5 55q-1 -86 -1 -229v-486q0 -77 6 -150q112 -6 201 -41q0 -69 -14 -94q-112 8 -292 8q-44 0 -145.5 -4t-160.5 -4q-15 27 -15 94q124 12 239 41q9 58 9 109v238l-2 317q-139 0 -235 -12q-16 30 -16 78z" />
<glyph unicode="2" horiz-adv-x="1019" d="M98 119q55 33 83.5 50t82.5 51t85 56t77 56.5t73 61t59 61.5t49 66t28.5 67t11.5 71q0 83 -66.5 144t-158.5 61q-55 0 -134 -18q-12 -67 -7 -170q-37 -22 -98 -25q-67 110 -80 212q82 61 186 100t203 39q152 0 249.5 -86t97.5 -226q0 -128 -127.5 -273.5t-296.5 -240.5 l-119 -43q322 0 469 6q20 31 31.5 62t30.5 102q53 0 88 -12q0 -166 -33 -295q-61 0 -211.5 4t-201.5 4q-133 0 -343 -8q-28 54 -28 123z" />
<glyph unicode="3" horiz-adv-x="987" d="M59 861q82 61 191 101t212 40q151 0 242.5 -86.5t91.5 -215.5q0 -86 -55.5 -161.5t-142.5 -122.5l-93 -34q156 -25 254 -107t98 -206q0 -173 -199.5 -306t-570.5 -181q-28 39 -22 85q97 21 176.5 43.5t161.5 57t137.5 73.5t91 93.5t35.5 116.5q0 86 -101 152t-250 66 q-22 0 -33 -1q-15 64 10 121q323 117 323 273q0 83 -65.5 141.5t-158.5 58.5q-72 0 -148 -18q-14 -87 -7 -171q-37 -22 -98 -26q-67 112 -80 214z" />
<glyph unicode="4" horiz-adv-x="1082" d="M43 160q86 109 257 350t306 439q100 26 188 26v-799q144 -4 236 -24q0 -76 -10 -115q-148 4 -226 4v-418q-65 -29 -176 -39v457q-186 0 -546 -4q-11 15 -20 53t-9 70zM181 168q245 6 437 8l-3 626l-80 -156q-192 -277 -354 -478z" />
<glyph unicode="5" horiz-adv-x="887" d="M70 -331q105 34 178.5 63t147 69t118 82t72 98.5t27.5 122.5q0 110 -77 186.5t-185 76.5q-59 0 -107.5 -6t-74.5 -11.5t-32 -5.5q-16 0 -16 10v604h115q245 0 526 9q0 -107 -27 -162q-226 22 -495 26q0 -239 11 -348q69 23 179 23q68 0 134 -25t121.5 -71t89.5 -120 t34 -163q0 -172 -193 -327.5t-518 -217.5q-28 35 -28 87z" />
<glyph unicode="6" horiz-adv-x="1085" d="M96 498q0 64 8 125t30 132.5t57 136t93 130t133 119.5t182.5 100.5t236.5 76.5q37 -27 37 -86q-293 -99 -442.5 -255.5t-151.5 -353.5l74 79q119 88 264 88q173 0 280 -104.5t107 -260.5q0 -111 -41 -202.5t-108 -149.5t-151 -89.5t-173 -31.5q-94 0 -171.5 40 t-125 100.5t-80 136.5t-45.5 143.5t-13 125.5zM282 529q7 -87 27.5 -162.5t56.5 -139.5t93.5 -101t131.5 -37q82 0 153 45q40 26 67.5 97t27.5 151q0 107 -82.5 182.5t-188.5 75.5q-139 0 -286 -111z" />
<glyph unicode="7" horiz-adv-x="983" d="M47 967q281 -9 488 -9h178q50 0 196 9q29 -46 29 -123q-190 -364 -295.5 -628t-210.5 -626q-116 10 -188 58q101 299 231.5 578.5t304.5 602.5h-155q-245 0 -449 -6q-26 -68 -41 -186q-27 -8 -71 4q-26 185 -17 326z" />
<glyph unicode="8" horiz-adv-x="1089" d="M107 280q0 181 188 318l96 50q-113 66 -176 136.5t-63 162.5q0 94 36 166t93.5 112t121 59.5t128.5 19.5q191 0 291 -78.5t100 -218.5q0 -117 -145 -244l-88 -55q65 -36 112.5 -68.5t92.5 -76t68.5 -96t23.5 -112.5q0 -167 -129 -285t-330 -118q-121 0 -213 32 t-149.5 107.5t-57.5 188.5zM281 310q0 -64 23.5 -110t63.5 -69.5t82 -33.5t89 -10q69 0 123 17t75 34q35 27 53 76t18 99q0 32 -17 63t-40 54.5t-67 52.5t-76 47t-89 48q-9 5 -14 7.5t-12.5 6.5t-13.5 7q-59 -45 -98 -82t-69.5 -93t-30.5 -114zM302 1007q0 -29 16.5 -57.5 t38.5 -50t64.5 -48t74 -43t87.5 -45.5q15 -7 22 -11q72 59 110.5 112.5t38.5 119.5q0 80 -68 135.5t-165 55.5q-98 0 -158 -37q-20 -9 -40.5 -46t-20.5 -85z" />
<glyph unicode="9" horiz-adv-x="1065" d="M81 526q0 114 41 208t108 153.5t151 91.5t173 32q86 0 155 -29t112.5 -79t74 -108t45.5 -126t21.5 -122.5t6.5 -107.5q0 -67 -7 -129t-28 -137t-55 -141t-92.5 -135t-136 -124.5t-189.5 -104t-249 -79.5q-37 27 -37 85q604 198 611 632l-74 -78q-106 -77 -244 -77 q-173 0 -280 107.5t-107 267.5zM246 569q0 -111 82.5 -190t188.5 -79q132 0 266 96q-4 70 -15 134t-33.5 128.5t-54 111t-79.5 75.5t-107 29q-84 0 -153 -47q-39 -27 -67 -101t-28 -157z" />
<glyph unicode=":" horiz-adv-x="614" d="M175 106q0 51 39.5 86t93.5 35t92.5 -35t38.5 -86q0 -52 -39 -90.5t-92 -38.5q-54 0 -93.5 38.5t-39.5 90.5zM175 770q0 50 39.5 85t93.5 35t92.5 -35t38.5 -85q0 -52 -39 -90.5t-92 -38.5q-54 0 -93.5 38.5t-39.5 90.5z" />
<glyph unicode=";" horiz-adv-x="614" d="M165 -240q91 117 91 228q0 80 -50 180q60 57 164 80q52 -85 52 -191q0 -96 -48 -187t-147 -159q-20 3 -37 17.5t-25 31.5zM185 770q0 50 39.5 85t93.5 35t92.5 -35t38.5 -85q0 -52 -39 -90.5t-92 -38.5q-54 0 -93.5 38.5t-39.5 90.5z" />
<glyph unicode="&#x3c;" horiz-adv-x="1070" d="M81 423q-23 76 0 142l864 407q42 -60 56 -122l-774 -357l774 -355q-14 -62 -56 -122z" />
<glyph unicode="=" horiz-adv-x="1070" d="M113 263q-14 64 0 135h844q15 -68 0 -135h-844zM113 590q-14 64 0 135h844q15 -67 0 -135h-844z" />
<glyph unicode="&#x3e;" horiz-adv-x="1070" d="M65 138l774 355l-774 357q14 62 56 122l864 -407q23 -66 0 -142l-864 -407q-42 60 -56 122z" />
<glyph unicode="?" horiz-adv-x="854" d="M103 1274q48 44 128.5 72.5t168.5 28.5q180 0 288.5 -111t108.5 -283q0 -54 -20.5 -104t-52 -86t-71 -72t-75.5 -62t-68.5 -56.5t-47.5 -55.5q-6 -10 -9.5 -33t-4.5 -41.5t-2 -52.5t-1 -41q-24 -20 -59.5 -28t-67.5 3q-10 24 -17.5 88.5t-7.5 102.5q0 39 31 78t71 68.5 t93 73t84 81.5q11 17 19.5 52t8.5 65q0 98 -64.5 177t-158.5 79q-76 0 -127 -7q-17 -85 -20 -206q-40 -17 -80 -11q-47 143 -47 281zM269 92q0 45 34 76t82 31t82.5 -31t34.5 -76q0 -46 -34.5 -80.5t-82.5 -34.5q-47 0 -81.5 34.5t-34.5 80.5z" />
<glyph unicode="@" horiz-adv-x="1837" d="M85 394q0 196 69.5 369t193 299t303.5 199t391 73q154 0 289.5 -65t229 -172.5t147.5 -248.5t54 -290q0 -169 -72 -304.5t-193.5 -209.5t-267.5 -74q-66 0 -104 177q-29 -30 -77.5 -65.5t-125.5 -70t-141 -34.5q-103 0 -167.5 66t-64.5 178q0 53 21 100t55.5 82.5t83 66 t98 51.5t106.5 38.5t103 27.5t93 17q0 126 -37 193t-135 67q-66 0 -168 -24q-10 -58 -7 -152q-42 -26 -98 -26q-68 108 -80 196q176 133 373 133q41 0 81 -7t86.5 -28.5t80.5 -55.5t57 -94t23 -138q0 -60 -2 -188t-2 -199q0 -101 20 -162q68 1 139.5 41.5t95.5 82.5 q68 119 68 263q0 189 -82 345.5t-227.5 247t-322.5 90.5q-134 0 -283 -53t-200 -102q-239 -235 -239 -564q0 -201 85 -363t236 -253.5t338 -91.5q108 0 182 12t186 43q40 -37 43 -108q-92 -44 -195.5 -68t-253.5 -24q-169 0 -315.5 59.5t-249.5 163t-162 247t-59 307.5z M732 272q0 -58 38.5 -98.5t114.5 -40.5q59 0 123.5 37t100.5 70v241q-73 -5 -194 -34.5t-142 -50.5q-18 -18 -29.5 -54t-11.5 -70z" />
<glyph unicode="A" horiz-adv-x="1426" d="M31 96q75 8 159 38q246 713 395 1222q89 23 181 26q211 -609 466 -1248q100 -10 163 -38q0 -70 -15 -100q-79 8 -223 8q-70 0 -159.5 -4t-130.5 -4q-16 29 -16 100q87 8 180 37q-66 163 -128 321q-114 6 -258 6q-101 0 -203 -3q-50 -156 -107 -323q110 -10 180 -38 q0 -72 -14 -100q-120 8 -227 8q-28 0 -104 -4t-123 -4q-16 29 -16 100zM480 579q99 3 197 3q64 0 178 -2q-103 273 -171 477l-13 150q-70 -243 -191 -628z" />
<glyph unicode="B" horiz-adv-x="1231" d="M70 96q82 8 178 39q10 61 10 125v694q0 222 -10 283q-96 31 -178 39q0 71 16 100q45 0 130.5 -4t131.5 -4q107 0 220 6t141 6q126 0 225.5 -94.5t99.5 -236.5q0 -28 -6.5 -59t-23.5 -71t-55 -82t-92 -77q134 -38 210 -127t76 -199q0 -81 -31.5 -159.5t-86.5 -141 t-137.5 -101t-176.5 -38.5q-35 0 -166 5t-197 5q-46 0 -131.5 -4t-130.5 -4q-16 29 -16 100zM440 305q0 -95 7 -172q59 -2 198 -2q125 0 221 45q27 12 58.5 80t31.5 143q0 44 -18 89.5t-50 83.5t-82 62.5t-108 24.5q-161 0 -258 -5v-349zM440 778q129 6 236 6q73 0 126.5 77 t53.5 159q0 100 -56.5 164.5t-148.5 64.5q-69 0 -204 -10q-7 -74 -7 -285v-176z" />
<glyph unicode="C" horiz-adv-x="1198" d="M101 662q0 89 20 178.5t56.5 172t92 153.5t124 124t155.5 83t182 30q197 0 353 -61q0 -70 -14.5 -168t-31.5 -152q-24 -7 -45 -7q-24 0 -46 9q-6 143 -21 205q-71 12 -205 12q-98 0 -171 -19.5t-100 -44.5q-16 -14 -38.5 -44.5t-53.5 -84.5t-52 -135t-21 -168 q0 -123 28.5 -231t83.5 -194t146.5 -136t208.5 -50q99 0 194 30q23 89 43 232q22 4 41 4q31 0 57 -10q11 -86 11 -172t-11 -171q-220 -77 -390 -77q-145 0 -259.5 54t-187.5 148.5t-111 219.5t-38 270z" />
<glyph unicode="D" horiz-adv-x="1360" d="M67 96q82 8 178 39q10 61 10 125v694q0 222 -10 283q-96 31 -178 39q0 71 16 100q45 0 130.5 -4t131.5 -4q111 0 222.5 6t134.5 6q178 0 307 -88t193.5 -239.5t64.5 -347.5q0 -109 -23.5 -211t-72.5 -193.5t-118.5 -159.5t-169 -107.5t-216.5 -39.5q-36 0 -150 5t-172 5 q-46 0 -131.5 -4t-130.5 -4q-16 29 -16 100zM437 305q0 -95 7 -172q75 -2 176 -2q195 0 278 59q15 11 31.5 26.5t45.5 54t50.5 83.5t38 115.5t16.5 148.5q0 96 -13.5 182.5t-45.5 169t-80.5 142.5t-124.5 96.5t-172 36.5q-34 0 -106 -2.5t-94 -3.5q-7 -74 -7 -285v-649z" />
<glyph unicode="E" horiz-adv-x="1194" d="M67 96q82 8 178 39q10 61 10 125v694q0 222 -10 283q-96 31 -178 39q0 71 16 100q45 0 130.5 -4t131.5 -4h211q244 0 494 8q2 -20 2 -65q0 -116 -19 -258q-26 -7 -51 -7l-33 3q-13 107 -36 184q-148 6 -469 6q-7 -74 -7 -285v-176q189 0 291 10q14 39 27 105q47 0 82 -14 q-18 -83 -25 -179q-4 -68 -4 -143q-63 0 -84 4q-5 11 -20 92q-82 2 -267 2v-350q0 -95 7 -172q340 0 487 6q52 106 80 209q51 0 86 -12q0 -175 -25 -340q-250 8 -502 8h-225q-46 0 -131.5 -4t-130.5 -4q-16 29 -16 100z" />
<glyph unicode="F" horiz-adv-x="1104" d="M67 96q82 8 178 39q10 61 10 125v694q0 222 -10 283q-96 31 -178 39q0 71 16 100q45 0 130.5 -4t131.5 -4h211q244 0 494 8q2 -20 2 -65q0 -116 -19 -258q-26 -7 -51 -7l-33 3q-13 107 -36 184q-148 6 -469 6q-7 -74 -7 -285v-219q189 0 291 10q14 39 27 105q47 0 82 -14 q-18 -83 -25 -179q-4 -68 -4 -143q-63 0 -84 4q-5 11 -20 92q-82 2 -267 2v-307q0 -96 7 -170q157 -15 208 -39q0 -74 -14 -102q-118 12 -289 12q-46 0 -133.5 -6t-132.5 -6q-16 29 -16 102z" />
<glyph unicode="G" horiz-adv-x="1357" d="M101 662q0 89 20 178.5t56.5 172t92 153.5t124 124t155.5 83t182 30q245 0 418 -66q0 -70 -14.5 -168t-31.5 -152q-24 -7 -45 -7q-25 0 -46 9q-6 143 -21 205q-111 17 -270 17q-98 0 -171 -19.5t-100 -44.5q-15 -13 -38 -44t-54 -84.5t-52 -135t-21 -168.5 q0 -123 29.5 -233t85.5 -198t147 -139.5t205 -51.5q99 0 227 20q-2 256 -10 303q-87 30 -178 39q0 71 16 101q45 0 130.5 -4t131.5 -4q122 0 201 8q15 -29 15 -101q-55 -25 -127 -39q-6 -79 -6 -360q-228 -117 -455 -117q-145 0 -259.5 54t-187.5 149t-111 220t-38 270z" />
<glyph unicode="H" horiz-adv-x="1549" d="M67 96q82 8 178 39q10 61 10 125v694q0 222 -10 283q-96 31 -178 39q0 71 16 100q45 0 130.5 -4t131.5 -4q173 0 252 8q14 -28 14 -100q-62 -29 -167 -39q-7 -74 -7 -283v-175q150 5 284 5q208 0 396 -4v174q0 222 -10 283q-96 31 -178 39q0 71 16 100q45 0 130.5 -4 t131.5 -4q173 0 252 8q15 -27 15 -100q-62 -29 -168 -39q-6 -79 -6 -283v-649q0 -91 6 -170q106 -10 168 -39q0 -73 -15 -100q-79 8 -252 8q-46 0 -131.5 -4t-130.5 -4q-16 29 -16 100q82 8 178 39q10 61 10 125v383q-238 10 -422 10q-146 0 -258 -4v-344q0 -96 7 -170 q105 -10 167 -39q0 -72 -14 -100q-79 8 -252 8q-46 0 -131.5 -4t-130.5 -4q-16 29 -16 100z" />
<glyph unicode="I" horiz-adv-x="686" d="M67 96q82 8 178 39q10 61 10 125v694q0 222 -10 283q-96 31 -178 39q0 71 16 100q45 0 130.5 -4t131.5 -4q173 0 252 8q14 -28 14 -100q-62 -29 -167 -39q-7 -74 -7 -283v-649q0 -96 7 -170q105 -10 167 -39q0 -72 -14 -100q-79 8 -252 8q-46 0 -131.5 -4t-130.5 -4 q-16 29 -16 100z" />
<glyph unicode="J" horiz-adv-x="629" d="M-40 -356q94 31 153 73.5t83 75.5q30 45 30 207v954q0 222 -10 283q-96 31 -178 39q0 71 16 100q45 0 130.5 -4t132.5 -4q172 0 251 8q15 -27 15 -100q-62 -29 -168 -39q-6 -79 -6 -283v-913q0 -98 -23.5 -174.5t-59.5 -125.5t-93 -86t-110.5 -57t-125.5 -38 q-15 9 -25 32.5t-12 51.5z" />
<glyph unicode="K" horiz-adv-x="1398" d="M67 96q82 8 178 39q10 61 10 125v694q0 222 -10 283q-96 31 -178 39q0 71 16 100q45 0 130.5 -4t131.5 -4q173 0 252 8q14 -28 14 -100q-62 -29 -167 -39q-7 -74 -7 -283v-279q134 73 215 128q153 228 315 439q-78 26 -163 34q0 71 16 100q45 0 111 -4t113 -4 q166 0 245 8q15 -27 15 -100q-65 -30 -161 -39q-210 -267 -373 -501q210 -280 430 -601q105 -10 167 -39q0 -72 -14 -100q-120 8 -238 8q-49 0 -133.5 -4t-114.5 -4q-16 29 -16 100q83 11 134 28q-208 321 -343 503q-160 -74 -205 -96v-226q0 -96 7 -170q105 -10 167 -39 q0 -72 -14 -100q-79 8 -252 8q-46 0 -131.5 -4t-130.5 -4q-16 29 -16 100z" />
<glyph unicode="L" horiz-adv-x="1120" d="M67 96q82 8 178 39q10 61 10 125v694q0 222 -10 283q-96 31 -178 39q0 71 16 100q45 0 130.5 -4t131.5 -4q173 0 252 8q14 -28 14 -100q-62 -29 -167 -39q-7 -74 -7 -283v-649q0 -95 7 -172q336 0 483 6q42 86 80 223q55 0 90 -12q0 -189 -25 -354q-250 8 -512 8h-215 q-46 0 -131.5 -4t-130.5 -4q-16 29 -16 100z" />
<glyph unicode="M" horiz-adv-x="1839" d="M67 96q82 8 178 39q10 61 10 125v694q0 222 -10 283q-96 31 -178 39q0 71 16 100q43 0 122 -4t117 -4q133 0 196 -4q5 -11 47.5 -115t58 -143t56 -138.5t64 -161t56 -147.5t58.5 -159t47 -140l23 -174q165 558 385 1178q64 4 184 4q173 0 252 8q15 -27 15 -100 q-62 -29 -168 -39q-6 -79 -6 -283v-649q0 -91 6 -170q106 -10 168 -39q0 -73 -15 -100q-79 8 -252 8q-46 0 -131.5 -4t-130.5 -4q-16 29 -16 100q82 8 178 39q10 61 10 125v984q-34 -104 -118.5 -359t-119.5 -362t-83.5 -258.5t-77.5 -248.5q-89 -23 -168 -26 q-174 491 -395 1071l-45 183v-939q0 -91 6 -170q106 -10 168 -39q0 -73 -15 -100q-79 8 -233 8q-43 0 -120.5 -4t-122.5 -4q-16 29 -16 100z" />
<glyph unicode="N" horiz-adv-x="1497" d="M67 96q82 8 178 39q10 61 10 125v694q0 222 -10 283q-96 31 -178 39q0 71 16 100q43 0 122 -4t117 -4q127 0 180 -4q313 -511 557 -938l72 -210v738q0 222 -10 283q-96 31 -179 39q0 69 17 100q42 0 123.5 -4t120.5 -4q161 0 232 8q15 -27 15 -100q-62 -29 -168 -39 q-6 -79 -6 -283v-938q-84 -20 -184 -26q-393 706 -635 1091l-57 163v-939q0 -91 6 -170q106 -10 168 -39q0 -73 -15 -100q-79 8 -233 8q-43 0 -120.5 -4t-122.5 -4q-16 29 -16 100z" />
<glyph unicode="O" d="M93 662q0 107 27.5 213.5t82.5 202.5t129.5 170t176 117.5t215.5 43.5q141 0 255 -53.5t188 -148t113.5 -221.5t39.5 -275q0 -107 -27.5 -214.5t-82.5 -203t-130 -169.5t-176.5 -117.5t-214.5 -43.5q-143 0 -257.5 54t-188 149t-112 221.5t-38.5 274.5zM278 745 q0 -98 17.5 -187.5t55 -168.5t91.5 -137t132 -91.5t171 -33.5q51 0 123 21t100 47q13 12 28.5 30.5t42 59.5t46.5 87t35.5 114t15.5 139q0 93 -16.5 181t-53.5 168t-90.5 140t-133 95.5t-175.5 35.5q-50 0 -121.5 -21t-99.5 -46q-16 -15 -38.5 -45t-54.5 -84.5t-53.5 -135.5 t-21.5 -168z" />
<glyph unicode="P" horiz-adv-x="1153" d="M67 96q82 8 178 39q10 61 10 125v694q0 222 -10 283q-96 31 -178 39q0 71 16 100q45 0 130.5 -4t131.5 -4q133 0 240 6t141 6q95 0 168 -32t116.5 -87t65 -122.5t21.5 -143.5q0 -61 -19.5 -127.5t-58.5 -129.5t-91.5 -113t-125 -80.5t-152.5 -30.5q-110 0 -213 21v-230 q0 -96 7 -170q157 -15 208 -39q0 -74 -14 -102q-118 12 -289 12q-46 0 -133.5 -6t-132.5 -6q-16 29 -16 102zM437 660q73 -9 146 -9q77 0 147.5 20.5t93.5 41.5q36 28 61 97t25 128q0 44 -7 85t-24 82t-43.5 71.5t-69.5 49.5t-97 19q-21 0 -58.5 -1t-89.5 -2.5t-77 -2.5 q-7 -74 -7 -285v-294z" />
<glyph unicode="Q" d="M93 662q0 107 27.5 213.5t82.5 202.5t129.5 170t176 117.5t215.5 43.5q141 0 255 -53.5t188 -148t113.5 -221.5t39.5 -275q0 -147 -50 -289t-149.5 -256.5t-230.5 -165.5l-109 -10q80 -74 152 -125q32 -23 52.5 -35.5t54 -24t68.5 -11.5q62 0 139 34q36 -25 47 -84 q-42 -42 -120.5 -78.5t-138.5 -36.5q-106 0 -220 110q-62 59 -101.5 106t-87.5 121q-170 15 -292.5 111.5t-181.5 246.5t-59 338zM278 745q0 -98 17.5 -187.5t55 -168.5t91.5 -137t132 -91.5t171 -33.5q51 0 123 21t100 47q13 12 28.5 30.5t42 59.5t46.5 87t35.5 114 t15.5 139q0 93 -16.5 181t-53.5 168t-90.5 140t-133 95.5t-175.5 35.5q-50 0 -121.5 -21t-99.5 -46q-16 -15 -38.5 -45t-54.5 -84.5t-53.5 -135.5t-21.5 -168z" />
<glyph unicode="R" horiz-adv-x="1342" d="M67 96q82 8 178 39q10 61 10 125v694q0 222 -10 283q-96 31 -178 39q0 71 16 100q45 0 130.5 -4t131.5 -4q107 0 224.5 6t156.5 6q102 0 177 -31.5t115.5 -85.5t59.5 -115.5t19 -131.5q0 -131 -70 -246.5t-184 -171.5q24 -76 49 -139t62 -129.5t77 -111.5t93.5 -74 t112.5 -29q27 0 57 6q28 -29 28 -73q0 -9 -1 -19q-112 -62 -209 -62q-289 0 -431 592h-10q-126 0 -234 21v-275q0 -96 7 -170q105 -10 167 -39q0 -72 -14 -100q-79 8 -252 8q-46 0 -131.5 -4t-130.5 -4q-16 29 -16 100zM437 701q84 -9 189 -9q138 0 207 51q32 24 54.5 90.5 t22.5 124.5q0 131 -65.5 209t-175.5 78q-21 0 -58.5 -1t-89.5 -2.5t-77 -2.5q-7 -74 -7 -285v-253z" />
<glyph unicode="S" horiz-adv-x="1115" d="M112 59q0 82 14.5 183t34.5 163q14 2 28 2q32 0 68 -12q2 -78 27 -221q107 -57 276 -57q59 0 113.5 16.5t81.5 36.5q31 23 49 79.5t18 129.5q0 28 -9.5 54t-22.5 46t-39.5 40.5t-47.5 34.5t-59 32t-62 28.5t-68 28.5q-3 1 -10 4q-52 22 -79 33.5t-74 35t-72.5 41 t-58.5 46t-50 56.5t-29.5 65.5t-12.5 79.5q0 84 28 154t72 114t100.5 74.5t111 43.5t106.5 13q239 0 416 -70q0 -76 -14 -167t-32 -149q-18 -4 -36 -4l-56 9q-3 113 -20 203q-25 13 -98.5 23t-124.5 10q-145 0 -205 -33q-22 -12 -42 -50.5t-20 -97.5q0 -30 10 -57t23 -47 t40 -41t48 -34.5t60.5 -32t63.5 -28.5t70 -28q56 -22 84.5 -34t79 -36.5t78 -44t63 -51t54 -64t32 -76t13.5 -93.5q0 -87 -35.5 -167.5t-97 -141t-150 -96.5t-188.5 -36q-122 0 -263 29t-187 61z" />
<glyph unicode="T" horiz-adv-x="1258" d="M42 1376q250 -8 498 -8h182q244 0 494 8q3 -36 3 -79q0 -110 -20 -269q-21 -6 -57 -6q-22 0 -29 2q-18 152 -37 209q-118 4 -354 6v-934q0 -91 6 -170q125 -12 183 -39q0 -72 -15 -102q-118 12 -266 12q-46 0 -139 -6t-138 -6q-16 29 -16 102q103 10 193 39q10 61 10 125 v979q-238 -2 -356 -6q-18 -55 -37 -211q-14 -4 -31 -4q-25 0 -57 8q-20 139 -20 262q0 45 3 88z" />
<glyph unicode="U" horiz-adv-x="1454" d="M32 1276q0 71 16 100q45 0 130.5 -4t132.5 -4q172 0 252 8q14 -28 14 -100q-62 -29 -168 -39q-6 -79 -6 -283v-426q0 -99 17 -170t56.5 -124.5t110 -80t172.5 -26.5q74 0 143 18t106 50q31 26 58.5 124.5t27.5 186.5v448q0 222 -10 283q-96 31 -179 39q0 69 17 100 q42 0 123 -4t121 -4q161 0 232 8q15 -27 15 -100q-62 -29 -168 -39q-6 -79 -6 -283v-448q0 -120 -31 -216.5t-95 -171t-171.5 -115t-251.5 -40.5q-236 0 -352.5 134.5t-116.5 430.5v426q0 216 -11 283q-96 31 -178 39z" />
<glyph unicode="V" horiz-adv-x="1466" d="M51 1276q0 71 16 100q43 0 130.5 -4t134.5 -4q130 0 250 8q14 -28 14 -100q-68 -28 -183 -39q220 -546 346 -922l12 -150q176 605 336 1072q-98 31 -182 39q0 71 16 100q45 0 120.5 -4t121.5 -4q138 0 217 8q15 -30 15 -100q-59 -29 -162 -39q-250 -725 -396 -1221 q-88 -23 -180 -26q-227 645 -467 1247q-88 32 -159 39z" />
<glyph unicode="W" horiz-adv-x="2050" d="M51 1276q0 71 16 100q43 0 130.5 -4t134.5 -4q129 0 249 8q14 -28 14 -100q-67 -28 -182 -39q178 -569 260 -887l17 -181q141 687 268 1187q86 23 168 26q62 -197 150.5 -502.5t144.5 -529.5l18 -188q106 495 249 1076q-95 30 -179 38q0 71 16 100q45 0 120.5 -4 t121.5 -4q138 0 217 8q15 -30 15 -100q-55 -27 -160 -39q-199 -754 -304 -1221q-85 -22 -203 -26q-119 509 -258 964l-30 208q-153 -661 -252 -1146q-87 -22 -199 -26q-141 501 -383 1247q-88 32 -159 39z" />
<glyph unicode="X" horiz-adv-x="1366" d="M38 96q84 8 176 38l363 559l-374 545q-85 31 -156 38q0 71 16 100q43 0 130.5 -4t134.5 -4q130 0 250 8q14 -28 14 -100q-59 -25 -159 -37l277 -405l252 407q-92 27 -171 35q0 71 16 100q45 0 120.5 -4t121.5 -4q138 0 217 8q15 -30 15 -100q-54 -26 -146 -37l-342 -527 l395 -578q101 -10 163 -38q0 -72 -14 -100q-120 8 -242 8q-47 0 -136.5 -4t-131.5 -4q-17 28 -17 100q77 9 151 37l-301 439l-271 -437q108 -10 171 -39q0 -72 -14 -100q-79 8 -254 8q-46 0 -119.5 -4t-118.5 -4q-16 29 -16 100z" />
<glyph unicode="Y" d="M51 1276q0 71 16 100q43 0 130.5 -4t134.5 -4q130 0 250 8q14 -28 14 -100q-61 -26 -176 -39q133 -213 267 -465l46 -133q173 345 318 599q-97 30 -179 38q0 71 16 100q45 0 120.5 -4t121.5 -4q138 0 217 8q15 -30 15 -100q-61 -29 -165 -39q-174 -300 -379 -721v-211 q0 -91 6 -170q125 -12 183 -39q0 -72 -15 -102q-118 12 -266 12q-46 0 -139 -6t-138 -6q-16 29 -16 102q103 10 193 39q10 61 10 125v219q-178 346 -429 759q-85 31 -156 38z" />
<glyph unicode="Z" horiz-adv-x="1276" d="M103 156q105 169 332.5 490.5t356.5 477.5l124 115h-221q-247 0 -448 -6q-28 -76 -41 -186q-12 -3 -26 -3q-21 0 -46 7q-18 138 -18 249q0 40 2 76q250 -8 487 -8h178q131 0 263 8q53 -61 63 -140q-565 -738 -812 -1103h239q301 0 448 6q43 85 80 223q57 0 90 -12 q0 -182 -24 -354q-250 8 -502 8h-182q-142 0 -302 -8q-41 80 -41 160z" />
<glyph unicode="[" horiz-adv-x="715" d="M185 -373q5 561 5 1057q0 500 -5 1061q55 0 226 -3t215 -3q14 -49 14 -129q-137 -21 -289 -25q-2 -159 -4.5 -361t-4 -333.5t-1.5 -206.5t1.5 -206t4 -331.5t4.5 -359.5q152 -4 289 -25q0 -81 -14 -131q-44 0 -215 -2t-226 -2z" />
<glyph unicode="\" horiz-adv-x="878" d="M80 1386q81 47 157 54q284 -782 551 -1598q-56 -46 -158 -54q-246 747 -550 1598z" />
<glyph unicode="]" horiz-adv-x="715" d="M75 -238q137 21 289 25q2 159 4.5 359.5t4 331.5t1.5 206t-1.5 206.5t-4 333.5t-4.5 361q-152 4 -289 25q0 80 14 129q44 0 215 3t226 3q-5 -561 -5 -1061q0 -496 5 -1057q-55 0 -226 2t-215 2q-14 50 -14 131z" />
<glyph unicode="^" horiz-adv-x="1040" d="M120 834q148 205 352 528q39 8 92 8q73 -116 183 -280.5t173 -251.5q-38 -47 -109 -72q-122 150 -295 376q-152 -196 -300 -372q-27 8 -56 27t-40 37z" />
<glyph unicode="_" horiz-adv-x="1024" d="M0 -127h1024v-121h-1024v121z" />
<glyph unicode="`" horiz-adv-x="850" d="M200 1466q0 24 11 40q67 36 154 42q53 -56 126 -165t130 -212q-36 -43 -82 -53q-48 49 -162.5 167t-176.5 181z" />
<glyph unicode="a" horiz-adv-x="1030" d="M85 221q0 53 21 100t55.5 82.5t83 66t98 51.5t106.5 38.5t103 27.5t93 17q0 126 -37 193t-135 67q-66 0 -168 -24q-8 -45 -8 -111q0 -20 1 -41q-37 -22 -98 -26q-68 108 -80 196q176 133 373 133q41 0 81 -7t86.5 -28.5t80.5 -55.5t57 -94t23 -138q0 -60 -2 -188t-2 -199 q0 -101 20 -162q57 7 143 33q31 -31 31 -76q-50 -43 -120 -74t-124 -31q-68 0 -106 176q-29 -30 -77.5 -65.5t-125.5 -70t-141 -34.5q-103 0 -167.5 66t-64.5 178zM268 272q0 -58 38.5 -98.5t114.5 -40.5q59 0 123.5 37t100.5 70v241q-73 -5 -194 -34.5t-142 -50.5 q-18 -18 -29.5 -54t-11.5 -70z" />
<glyph unicode="b" horiz-adv-x="1108" d="M-20 1495q58 25 157.5 46.5t186.5 27.5q22 -68 22 -178q0 -12 -2 -172.5t-2 -255.5v-93q137 117 315 117q165 0 268 -133t103 -350q0 -97 -32 -193t-86 -171t-131.5 -122t-162.5 -47q-74 0 -164 32t-163 84q-29 -47 -63.5 -81t-65.5 -45q-20 3 -36.5 15.5t-21.5 27.5 q68 133 68 236v723l-4 426q-66 21 -176 32q-11 33 -11 58q0 8 1 16zM342 239q49 -56 127.5 -95.5t153.5 -39.5q67 0 118 35q42 30 75.5 101.5t33.5 173.5q0 69 -16 143t-45.5 140.5t-79 109.5t-109.5 43q-54 0 -125.5 -25.5t-132.5 -63.5v-522z" />
<glyph unicode="c" horiz-adv-x="923" d="M80 467q0 93 31.5 184.5t88 166t143.5 121t188 46.5q71 0 138 -14t98.5 -25.5t88.5 -36.5q0 -61 -18 -133t-42 -116q-21 -4 -41 -4q-31 0 -58 9q-3 21 -10 79t-11 92q-48 14 -153 14q-54 0 -99 -10.5t-59 -24.5q-41 -33 -76 -114t-35 -171q0 -57 8 -111.5t28.5 -108.5 t51 -94.5t80 -65.5t111.5 -25q127 0 305 70q31 -20 35 -78q-75 -55 -182 -97.5t-193 -42.5q-104 0 -185.5 39.5t-131.5 108t-75.5 155.5t-25.5 187z" />
<glyph unicode="d" horiz-adv-x="1142" d="M80 463q0 111 37.5 210t99 167t141 107.5t163.5 39.5q49 0 113 -21t112 -50v47l-4 426q-66 21 -176 32q-11 33 -11 58q0 8 1 16q58 25 157.5 46.5t186.5 27.5q22 -68 22 -178q0 -12 -2 -172.5t-2 -255.5v-682q0 -101 21 -162q57 7 143 33q31 -33 31 -76 q-51 -44 -120.5 -74.5t-123.5 -30.5q-71 0 -111 196q-176 -196 -315 -196q-117 0 -200.5 66.5t-123 176t-39.5 249.5zM254 504q0 -93 25 -178t79.5 -144t127.5 -59q86 0 260 154v522q-143 51 -236 51q-96 0 -143 -31q-49 -44 -81 -125.5t-32 -189.5z" />
<glyph unicode="e" horiz-adv-x="989" d="M80 467q0 128 55.5 247.5t159 198t228.5 78.5q87 0 153 -21.5t105.5 -55.5t64.5 -83.5t34 -98.5t9 -107q0 -78 -14 -125q-158 -15 -332 -15q-160 0 -290 10q3 -55 12.5 -105t31 -99.5t51.5 -85.5t77.5 -58t105.5 -22q135 0 325 74q32 -21 35 -74q-249 -148 -395 -148 q-107 0 -188 37.5t-130 105t-73.5 155t-24.5 192.5zM257 599q91 -7 221 -7q179 0 239 12q-4 61 -14 101.5t-32.5 78t-66.5 56t-110 18.5q-35 0 -79 -12t-54 -21q-32 -25 -62.5 -88.5t-41.5 -137.5z" />
<glyph unicode="f" horiz-adv-x="740" d="M43 90q89 9 164 35q8 60 8 115v604q-73 2 -156 26q-6 25 -6 62q0 21 2 34l160 6v68q0 254 90 389.5t250 135.5q143 0 240 -43q0 -156 -45 -269q-21 -3 -40 -3q-30 0 -53 7q-13 110 -28 175q-15 2 -58 2q-77 0 -124 -32q-58 -38 -58 -425v-4q144 -2 252 -12 q0 -77 -12 -117h-241l-1 -563q0 -80 6 -154q142 -7 242 -37q0 -65 -12 -92q-151 4 -318 4q-42 0 -124 -2t-124 -2q-14 28 -14 92z" />
<glyph unicode="g" horiz-adv-x="1067" d="M66 -258q0 92 57 165t141 117q-28 26 -28 82q0 79 97 190q-110 26 -171 103t-61 203q0 69 26.5 135.5t75.5 122t129 89.5t178 34q139 0 231 -58q91 95 245 163q63 -50 71 -141q-43 -17 -125.5 -40t-124.5 -40q68 -82 68 -205q0 -71 -26 -137.5t-76 -121t-133 -87.5 t-187 -33q-23 0 -35 1q-24 -46 -24 -83q0 -34 10 -51q12 -17 199 -17q198 0 301.5 -67.5t103.5 -180.5q0 -206 -147 -315t-404 -109q-88 0 -163.5 25t-124 65t-76 90t-27.5 101zM246 -209q0 -31 10.5 -60t37 -59.5t83 -49.5t135.5 -19q176 0 271 57q20 12 38.5 63t18.5 101 q0 75 -63.5 110t-210.5 35q-149 0 -227 19q-93 -96 -93 -197zM254 659q0 -106 66 -178.5t168 -72.5q41 0 85.5 9t61.5 18q32 17 59 75.5t27 118.5q0 89 -69 160t-179 71q-37 0 -78 -7.5t-55 -16.5q-35 -25 -60.5 -74.5t-25.5 -102.5z" />
<glyph unicode="h" horiz-adv-x="1178" d="M11 1495q58 25 157.5 46.5t186.5 27.5q22 -68 22 -178q0 -12 -2 -172.5t-2 -255.5v-78q62 43 152 74.5t182 31.5q283 0 283 -327v-383q0 -80 6 -154q92 -10 154 -37q0 -66 -13 -92q-73 4 -229 4q-43 0 -126.5 -2t-121.5 -2q-14 28 -14 92q89 9 164 35q8 60 8 115v344 q0 50 -4 87t-15.5 72.5t-31.5 57.5t-54.5 35.5t-81.5 13.5q-131 0 -258 -60v-509q0 -80 6 -154q92 -10 154 -37q0 -66 -13 -92q-73 4 -229 4q-43 0 -126.5 -2t-121.5 -2q-14 28 -14 92q89 9 164 35q8 60 8 115v723l-4 426q-66 21 -176 32q-11 33 -11 58q0 8 1 16z" />
<glyph unicode="i" horiz-adv-x="612" d="M38 905q157 67 367 84q-4 -203 -4 -477v-231q0 -80 6 -154q92 -10 154 -37q0 -66 -13 -92q-73 4 -229 4q-43 0 -126.5 -2t-121.5 -2q-14 28 -14 92q89 9 164 35q8 60 8 115v272l-4 291q-25 7 -84 16.5t-90 11.5q-13 26 -13 74zM188 1290q0 53 39.5 101t93.5 48 q44 0 78.5 -31t34.5 -75q0 -54 -39 -99t-94 -49q-42 0 -77.5 31t-35.5 74z" />
<glyph unicode="j" horiz-adv-x="572" d="M2 -454q118 82 174 178q12 20 25.5 104.5t13.5 191.5v492l-4 291q-25 7 -84 16.5t-90 11.5q-13 26 -13 74q157 67 367 84q-4 -203 -4 -477v-451q0 -122 -23 -215.5t-69.5 -161.5t-106.5 -116t-145 -88q-38 15 -41 66zM188 1290q0 53 39.5 101t93.5 48q44 0 78.5 -31 t34.5 -75q0 -54 -39 -99t-94 -49q-42 0 -77.5 31t-35.5 74z" />
<glyph unicode="k" horiz-adv-x="1138" d="M11 1495q58 25 157.5 46.5t186.5 27.5q22 -68 22 -178q0 -12 -2 -172.5t-2 -255.5v-419q86 34 168 74q126 144 191 232q-53 11 -142 24q0 53 15 91q28 0 105 -2t122 -2q99 0 209 4q12 -29 12 -91q-62 -24 -136 -34q-105 -97 -269 -290q132 -260 229 -368 q43 -48 78.5 -67.5t90.5 -19.5q40 0 67 5q24 -28 24 -61q0 -9 -2 -19q-31 -17 -100 -33t-129 -16q-42 0 -101.5 45.5t-99.5 106.5q-88 128 -182 348q-70 -11 -150 -36v-154q0 -80 6 -154q92 -10 154 -37q0 -66 -13 -92q-73 4 -229 4q-43 0 -126.5 -2t-121.5 -2 q-14 28 -14 92q89 9 164 35q8 60 8 115v723l-4 426q-66 21 -176 32q-11 33 -11 58q0 8 1 16z" />
<glyph unicode="l" horiz-adv-x="584" d="M11 1495q58 25 157.5 46.5t186.5 27.5q22 -68 22 -178q0 -12 -2 -172.5t-2 -255.5v-682q0 -80 6 -154q92 -10 154 -37q0 -66 -13 -92q-73 4 -229 4q-43 0 -126.5 -2t-121.5 -2q-14 28 -14 92q89 9 164 35q8 60 8 115v723l-4 426q-66 21 -176 32q-11 33 -11 58q0 8 1 16z " />
<glyph unicode="m" horiz-adv-x="1748" d="M39 905q62 27 155 50.5t168 29.5q14 -52 28 -136q62 63 144.5 102.5t169.5 39.5q193 0 250 -160q63 70 151 115t181 45q137 0 205.5 -79.5t68.5 -247.5v-383q0 -80 6 -154q92 -10 154 -37q0 -66 -13 -92q-73 4 -229 4q-43 0 -126.5 -2t-121.5 -2q-14 28 -14 92 q89 9 164 35q8 60 8 115v344q0 52 -3 87t-13 72t-29 58.5t-52.5 35t-80.5 13.5q-107 0 -239 -91q7 -41 7 -95v-383q0 -80 6 -154q81 -12 133 -37q0 -65 -12 -92q-73 4 -207 4q-45 0 -124 -2t-105 -2q-15 30 -15 92q71 12 144 35q8 60 8 115v344q0 52 -3 87t-13 72t-29 58.5 t-52.5 35t-80.5 13.5q-102 0 -230 -86q3 -210 3 -252v-231q0 -80 6 -154q92 -10 154 -37q0 -66 -13 -92q-73 4 -229 4q-43 0 -126.5 -2t-121.5 -2q-14 28 -14 92q89 9 164 35q8 60 8 115v272l-4 287q-66 21 -176 32q-11 32 -11 58q0 8 1 16z" />
<glyph unicode="n" horiz-adv-x="1205" d="M39 905q62 27 155 50.5t168 29.5q14 -52 28 -136q172 142 345 142q282 0 282 -327v-383q0 -80 6 -154q92 -10 154 -37q0 -66 -13 -92q-73 4 -229 4q-43 0 -126.5 -2t-121.5 -2q-14 28 -14 92q89 9 164 35q8 60 8 115v344q0 64 -6.5 107t-25.5 82t-57 58t-97 19 q-122 0 -261 -94q3 -210 3 -244v-231q0 -80 6 -154q92 -10 154 -37q0 -66 -13 -92q-73 4 -229 4q-43 0 -126.5 -2t-121.5 -2q-14 28 -14 92q89 9 164 35q8 60 8 115v272l-4 287q-66 21 -176 32q-11 32 -11 58q0 8 1 16z" />
<glyph unicode="o" horiz-adv-x="1047" d="M80 464q0 94 31.5 187t88 169t144.5 123.5t191 47.5q108 0 192 -37.5t135.5 -104.5t78 -156t26.5 -196q0 -94 -31.5 -187t-88 -169t-144.5 -123t-191 -47q-141 0 -240 64.5t-145.5 173.5t-46.5 255zM254 522q0 -55 9.5 -110t31.5 -110.5t55 -98t84.5 -69t114.5 -26.5 q37 0 80.5 11t60.5 28q14 12 35.5 44.5t44.5 102.5t23 146q0 55 -9.5 110t-31.5 110.5t-55 98t-84.5 69t-114.5 26.5q-36 0 -80 -11t-61 -28q-16 -16 -36 -46.5t-43.5 -100.5t-23.5 -146z" />
<glyph unicode="p" horiz-adv-x="1136" d="M10 905q62 27 155 50.5t168 29.5q12 -44 27 -127q61 53 150 97t175 44q165 0 268 -138t103 -357q0 -128 -52 -250t-148 -202.5t-211 -80.5q-130 0 -273 96v-300q0 -81 6 -154q135 -7 242 -37q0 -63 -12 -90q-151 4 -318 4q-42 0 -124 -2t-124 -2q-14 28 -14 90 q89 9 164 35q8 60 8 115v786l-4 287q-66 21 -176 32q-11 28 -11 59q0 8 1 15zM369 759q3 -210 3 -247v-274q54 -54 130 -94t149 -40q70 0 120 37q41 30 76 116.5t35 191.5q0 68 -16.5 139t-47 133t-80.5 101.5t-110 39.5q-50 0 -124.5 -30t-134.5 -73z" />
<glyph unicode="q" horiz-adv-x="1090" d="M80 463q0 111 37.5 210.5t99 168.5t141.5 109t163 40q68 0 153 -32t129 -78v-2q30 46 65 80t62 42q42 -6 58 -43q-35 -71 -51.5 -122t-16.5 -113v-956q0 -81 6 -154q92 -10 154 -37q0 -64 -13 -90q-92 4 -229 4q-40 0 -145 -2t-160 -2q-14 28 -14 90q127 10 221 35 q8 60 8 115v333q-166 -88 -305 -88q-117 0 -200.5 66.5t-123 176t-39.5 249.5zM254 504q0 -93 25 -178t79.5 -144t127.5 -59q115 0 262 40v640q-151 51 -238 51q-95 0 -139 -29q-41 -25 -79 -114.5t-38 -206.5z" />
<glyph unicode="r" horiz-adv-x="894" d="M39 905q63 27 155.5 50.5t168.5 29.5q29 -88 40 -197q124 199 290 199q93 0 166 -26q0 -146 -37 -271q-28 -9 -54.5 -9t-52.5 9q-9 96 -24 146q-30 4 -54 4q-65 0 -118 -33t-111 -128v-398q0 -80 6 -154q142 -7 242 -37q0 -65 -12 -92q-151 4 -318 4q-42 0 -124 -2 t-124 -2q-14 28 -14 92q89 9 164 35q8 60 8 115v276q0 62 -2.5 132.5t-5.5 110.5l-2 40q-68 21 -176 32q-12 25 -12 59q0 7 1 15z" />
<glyph unicode="s" horiz-adv-x="864" d="M102 725q0 57 22 103.5t56.5 75t78.5 48t85 27.5t80 8q174 0 311 -49q0 -156 -29 -242q-20 -6 -40 -6l-52 10q-14 100 -35 162q-59 21 -123 21q-48 0 -90.5 -10.5t-52.5 -20.5q-33 -30 -33 -88q0 -22 12 -42.5t26.5 -35.5t47.5 -35t52.5 -30.5t63.5 -32.5 q40 -20 61.5 -31.5t58 -33t58 -38t48 -41.5t40.5 -49.5t24 -56.5t10 -66q0 -126 -102 -211.5t-256 -85.5q-71 0 -144.5 14.5t-111 28t-63.5 26.5q-14 72 -14 145q0 70 13 141q26 11 56 11q21 0 44 -6q17 -124 46 -199q68 -42 172 -42q43 0 81.5 12.5t59.5 28.5q31 27 31 107 q0 30 -15.5 57t-50 52.5t-62.5 42t-81 43.5q-42 22 -59 31t-54.5 31t-55 36t-44 38t-39 45t-22 49t-9.5 58z" />
<glyph unicode="t" horiz-adv-x="705" d="M35 966l160 7q3 166 6 201q50 58 135 104q23 -7 37 -23q-8 -110 -8 -249v-33q149 0 277 -12q0 -78 -13 -117h-265l-1 -522q0 -107 15 -153t53 -46q80 0 180 41q40 -21 43 -74q-138 -119 -277 -119q-48 0 -82 14t-54.5 38t-32 65t-15.5 85t-4 108q1 308 4 563 q-71 2 -154 26q-7 30 -7 59q0 19 3 37z" />
<glyph unicode="u" horiz-adv-x="1177" d="M30 870q0 50 13 94q27 0 71 -1t81.5 -1.5t74.5 -0.5q3 0 90 3q-4 -201 -4 -579q0 -262 153 -262q58 0 139.5 52t137.5 108q0 395 -4 546q-63 26 -144 41q0 50 13 94q27 0 71 -1t81.5 -1.5t74.5 -0.5q9 0 23 0.5t32.5 1.5t28.5 1q-4 -201 -4 -683q0 -101 21 -162 q57 7 143 33q31 -33 31 -76q-51 -44 -120.5 -74.5t-123.5 -30.5q-73 0 -112 201q-92 -102 -172.5 -151.5t-166.5 -49.5q-277 0 -280 334q0 363 -4 524q-63 26 -144 41z" />
<glyph unicode="v" horiz-adv-x="1156" d="M45 872q0 58 14 93q36 0 109.5 -2t112.5 -2q111 0 223 4q12 -29 12 -93q-75 -24 -162 -30q104 -253 207 -570l25 -150q95 294 243 720q-81 24 -155 30q0 64 14 93q32 0 101.5 -2t99.5 -2q76 0 210 4q12 -34 12 -93q-64 -27 -138 -36q-142 -363 -299 -820 q-79 -24 -189 -28q-191 536 -319 854q-57 19 -121 30z" />
<glyph unicode="w" horiz-adv-x="1658" d="M45 872q0 58 14 93q24 0 100.5 -2t121.5 -2q111 0 223 4q12 -29 12 -93q-75 -24 -162 -30q92 -264 183 -570l15 -151q106 476 202 831q69 21 147 21q150 -429 227 -701l17 -145q109 455 188 715q-80 23 -157 30q0 64 14 93q32 0 101.5 -2t99.5 -2q76 0 210 4 q12 -34 12 -93q-64 -27 -138 -36q-33 -99 -113.5 -371t-126.5 -447q-70 -28 -180 -28q-83 278 -207 633l-34 155q-115 -461 -181 -760q-74 -28 -180 -28q-46 151 -142.5 449.5t-134.5 398.5q-45 18 -131 34z" />
<glyph unicode="x" horiz-adv-x="1138" d="M26 90q87 9 162 35l280 368l-89 115l-191 234q-59 18 -143 30q0 58 14 93q25 0 111 -2t131 -2q115 0 225 4q12 -29 12 -93q-71 -21 -153 -24q95 -110 204 -247l189 251q-56 12 -137 20q4 70 14 93q23 0 98.5 -2t127.5 -2q61 0 165 4q12 -38 12 -97q-66 -24 -145 -34 l-248 -329q123 -156 289 -378q91 -10 154 -37q0 -65 -12 -92q-75 4 -224 4q-46 0 -130.5 -2t-108.5 -2q-15 27 -15 92q82 7 146 21q-17 19 -29 36l-192 249l-220 -285q113 -10 160 -21q0 -65 -12 -92q-73 4 -207 4q-42 0 -111.5 -2t-111.5 -2q-15 33 -15 92z" />
<glyph unicode="y" horiz-adv-x="1156" d="M45 872q0 58 14 93q36 0 109.5 -2t112.5 -2q111 0 223 4q12 -29 12 -93q-75 -24 -162 -30q104 -253 207 -570l25 -150q95 294 243 720q-81 24 -155 30q0 64 14 93q32 0 116 -2t114 -2q63 0 181 4q12 -34 12 -93q-64 -27 -138 -36q-142 -363 -299 -820 q-33 -96 -52.5 -148.5t-49 -123.5t-58 -116t-59.5 -72q-94 -80 -197 -80q-41 0 -94 12q-11 24 -11 47q0 16 5 31q118 35 202.5 128t149.5 236q-247 670 -344 912q-57 19 -121 30z" />
<glyph unicode="z" horiz-adv-x="967" d="M74 119q56 91 215.5 299.5t282.5 348.5l84 73q-267 0 -415 -11q-26 -67 -35 -165q-14 -3 -28 -3q-27 0 -52 11q-17 114 -17 207q0 47 4 88q378 -9 389 -9h136q98 0 184 7q30 -46 37 -127q-250 -275 -580 -713q322 0 477 16q32 54 58 160q13 2 26 2q29 0 61 -12 q2 -18 2 -39q0 -56 -9.5 -132t-25.5 -124q-423 6 -609 6q-74 0 -156 -4q-29 56 -29 121z" />
<glyph unicode="{" horiz-adv-x="869" d="M142 721q86 45 135 76t95 73q12 11 12 87q0 63 -10.5 215.5t-10.5 191.5q0 82 34 150.5t94.5 118t138 84t171.5 55.5q37 -37 43 -99q-84 -37 -159 -81t-105 -79q-14 -17 -28.5 -94.5t-14.5 -126.5q0 -69 -0.5 -218.5t-0.5 -180.5q0 -57 -58.5 -102t-173.5 -96 q232 -88 232 -196q0 -51 0.5 -204t0.5 -218q0 -49 14.5 -126.5t28.5 -94.5q30 -35 105 -79t159 -81q-6 -62 -43 -99q-94 21 -171.5 55.5t-138 84t-94.5 118t-34 150.5q0 40 9.5 187t9.5 206q0 70 -10 81q-75 83 -211 149q-19 48 -19 93z" />
<glyph unicode="|" horiz-adv-x="651" d="M250 -549v2122h151v-2122h-151z" />
<glyph unicode="}" horiz-adv-x="869" d="M25 -304q84 37 159 81t105 79q14 17 28.5 94.5t14.5 126.5q0 65 0.5 218t0.5 204q0 61 61 108t170 88q-114 50 -172.5 95t-58.5 103q0 31 -0.5 180.5t-0.5 218.5q0 49 -14.5 126.5t-28.5 94.5q-30 35 -105 79t-159 81q6 62 43 99q94 -21 171.5 -55.5t138 -84t94.5 -118 t34 -150.5q0 -39 -10.5 -191.5t-10.5 -215.5q0 -76 12 -87q46 -42 95 -73t135 -76q0 -45 -19 -93q-136 -66 -211 -149q-11 -12 -11 -81q0 -59 10 -206t10 -187q0 -82 -34 -150.5t-94.5 -118t-138 -84t-171.5 -55.5q-37 37 -43 99z" />
<glyph unicode="~" horiz-adv-x="1040" d="M61 510q69 66 148.5 118t128.5 52q67 0 143.5 -29t148.5 -58t128 -29q55 0 168 55q31 -30 53 -92q-51 -50 -126.5 -89.5t-129.5 -39.5q-65 0 -140 26t-144.5 52t-121.5 26q-58 0 -205 -82q-40 45 -51 90z" />
<glyph unicode="&#xa1;" horiz-adv-x="614" d="M190 871q0 46 34.5 80.5t82.5 34.5q47 0 81.5 -34.5t34.5 -80.5q0 -45 -34 -76t-82 -31t-82.5 31t-34.5 76zM204 -197q0 278 47 798q48 27 103 0q54 -492 54 -791q0 -111 -7 -178q-84 -40 -191 0q-6 70 -6 171z" />
<glyph unicode="&#xa2;" horiz-adv-x="933" d="M100 473q0 118 49 228t146.5 187.5t222.5 86.5l17 188q57 12 103 -7l-16 -182q55 -5 109.5 -18.5t82 -23.5t77.5 -31q0 -62 -18.5 -131.5t-45.5 -112.5q-49 -3 -90 12q-5 116 -15 161q-45 14 -111 18l-63 -721h5q127 0 305 70q31 -20 35 -78q-71 -49 -172 -88t-185 -43 l-16 -182q-50 -9 -104 9l16 180q-163 29 -247.5 161t-84.5 317zM255 534q0 -129 45.5 -237.5t144.5 -149.5l62 702q-103 -8 -133 -38q-45 -33 -82 -110t-37 -167z" />
<glyph unicode="&#xa3;" horiz-adv-x="978" d="M60 77q59 19 99.5 61t61 101.5t29 115.5t11.5 127h-138q-15 52 0 114h139q1 111 55 214.5t143.5 168t187.5 64.5q133 0 252 -54q-4 -144 -43 -271q-37 -8 -73 8q-1 71 -16 143q-68 26 -144 26q-43 0 -84.5 -14t-57.5 -36q-41 -57 -49 -249h241q12 -56 0 -114h-243 q-5 -196 -72 -296l-105 -72q239 43 528 43q24 68 36 139q39 7 76 -5q11 -158 -25 -310q-200 33 -438 33q-222 0 -350 -29q-21 39 -21 92z" />
<glyph unicode="&#xa4;" horiz-adv-x="980" d="M103 839q31 54 82 81l138 -121q79 52 167 52q93 0 167 -44l136 116q54 -31 81 -82l-116 -133q47 -78 47 -172q0 -88 -48 -163l120 -140q-32 -56 -82 -81l-138 120q-76 -51 -167 -51q-94 0 -168 44l-135 -116q-56 32 -81 82l116 133q-47 74 -47 172q0 85 48 162zM304 536 q0 -80 53.5 -136t132.5 -56t132.5 56t53.5 136t-53.5 135.5t-132.5 55.5t-132.5 -55.5t-53.5 -135.5z" />
<glyph unicode="&#xa5;" horiz-adv-x="1084" d="M50 920q0 60 19 96q128 -4 216 -4q108 0 188 4q17 -39 17 -96q-51 -25 -126 -35q44 -69 162 -289l40 -123q110 233 213 410q-53 26 -128 37q4 66 15 96q126 -4 189 -4q67 0 163 4q16 -40 16 -96q-35 -20 -110 -39q-73 -112 -142 -235h145q15 -47 0 -95h-196 q-40 -78 -66 -134h262q15 -47 0 -95h-279v-41q0 -76 4 -150q103 -17 152 -37q0 -58 -18 -96q-124 4 -222 4q-43 0 -227 -4q-20 33 -20 96q88 9 157 37q6 37 6 109v82h-298q-16 41 0 95h265q-42 80 -73 134h-192q-16 41 0 95h135q-70 112 -156 237q-46 23 -111 37z" />
<glyph unicode="&#xa6;" horiz-adv-x="668" d="M250 -92v667h168v-667h-168zM250 870v668h168v-668h-168z" />
<glyph unicode="&#xa7;" horiz-adv-x="971" d="M70 570q0 153 215 294q-127 89 -127 215q0 67 22 123t57 92.5t80 61.5t88 36t84 11q188 0 332 -59q0 -66 -11 -143.5t-27 -126.5q-34 -9 -77 4q-2 106 -17 173q-18 11 -75 20t-97 9q-114 0 -159 -29q-17 -10 -33 -43t-16 -83q0 -49 32.5 -90.5t85 -72.5t115.5 -61.5 t126 -65t115.5 -74t85 -97t32.5 -126.5q0 -153 -215 -294q127 -91 127 -215q0 -67 -22 -123t-57 -92.5t-80 -61.5t-88 -36t-84 -11q-188 0 -332 59q0 66 11 143.5t27 126.5q34 9 77 -4q2 -106 17 -173q18 -11 75 -20t97 -9q114 0 159 29q17 10 33 43t16 83q0 49 -32.5 90.5 t-85 72.5t-115.5 61.5t-126 65t-115.5 74t-85 97t-32.5 126.5zM233 579q0 -41 21 -75.5t64.5 -63.5t82.5 -49.5t104 -50t101 -48.5q132 116 132 237q0 41 -21 75t-64.5 63t-83 49.5t-104 50t-100.5 48.5q-132 -113 -132 -236z" />
<glyph unicode="&#xa8;" horiz-adv-x="850" d="M123 1291q0 50 37 95t87 45q42 0 74.5 -28.5t32.5 -70.5q0 -51 -36.5 -93.5t-88.5 -45.5q-40 0 -73 28.5t-33 69.5zM496 1291q0 50 37 95t88 45q41 0 73.5 -28.5t32.5 -70.5q0 -51 -36 -93.5t-88 -45.5q-40 0 -73.5 28.5t-33.5 69.5z" />
<glyph unicode="&#xa9;" horiz-adv-x="1584" d="M101 661q0 141 54.5 269.5t146.5 221t220 147.5t269 55t269 -55t221 -147.5t147.5 -221t54.5 -269.5t-54.5 -269t-147.5 -220.5t-221 -147t-269 -54.5t-269 54.5t-220 147t-146.5 220.5t-54.5 269zM240 661q0 -115 42.5 -219t116 -180t176 -120.5t216.5 -44.5t217 44.5 t176.5 120.5t116.5 180t43 219t-43 219.5t-116.5 180.5t-176.5 121t-217 45t-216.5 -45t-176 -121t-116 -180.5t-42.5 -219.5zM433 658q0 73 27 144t75 128t122 92t160 35q117 0 224 -39q0 -46 -11 -110t-25 -104q-49 -9 -86 12q-1 61 -8 99q-45 6 -99 6q-53 0 -93 -8.5 t-54 -18.5q-7 -5 -19 -19t-27.5 -38t-26.5 -60.5t-11 -75.5q0 -119 63.5 -200.5t183.5 -81.5q48 0 100 11q10 57 13 118q44 14 84 7q27 -97 27 -206q-134 -67 -255 -67q-117 0 -201 51.5t-123.5 135t-39.5 189.5z" />
<glyph unicode="&#xaa;" horiz-adv-x="656" d="M42 713q0 57 37.5 102t98.5 72.5t115.5 42.5t111.5 23q0 62 -23.5 95.5t-86.5 33.5q-51 0 -106 -12q-4 -39 -4 -90q-32 -15 -70 -16q-46 64 -54 129q115 91 250 91q29 0 56.5 -4.5t59 -17.5t54.5 -34t38.5 -57.5t15.5 -84.5q0 -36 -1 -114t-1 -122q0 -46 9 -76 q46 4 85 17q24 -24 24 -67q-76 -64 -151 -64q-55 0 -84 108q-35 -33 -100 -68.5t-125 -35.5t-104.5 44t-44.5 105zM82 359q-14 52 0 101h510q13 -50 0 -101h-510zM182 748q0 -64 84 -64q27 0 69 20t64 36v115q-41 -2 -111 -20.5t-82 -30.5q-24 -21 -24 -56z" />
<glyph unicode="&#xab;" horiz-adv-x="1183" d="M119 484q-8 59 12 105q221 207 400 399q21 -8 43.5 -25.5t31.5 -33.5q-71 -103 -289 -392q270 -342 304 -384q-37 -52 -94 -74q-64 70 -189 194t-219 211zM570 484q-8 59 12 105q221 207 400 399q21 -8 43.5 -25.5t31.5 -33.5q-71 -103 -289 -392q270 -342 304 -384 q-37 -52 -94 -74q-64 70 -189 194t-219 211z" />
<glyph unicode="&#xac;" horiz-adv-x="1070" d="M73 420q-14 64 0 135h904v-570q-64 -14 -135 0v435h-769z" />
<glyph unicode="&#xad;" horiz-adv-x="778" d="M121 605q226 33 506 62q32 -65 18 -135q-197 -21 -507 -65q-28 69 -17 138z" />
<glyph unicode="&#xae;" horiz-adv-x="1065" d="M28 1089q0 100 40.5 191.5t108.5 157.5t161 105t194 39q135 0 251 -65.5t185 -179.5t69 -248t-69 -247.5t-185 -179t-251 -65.5t-251 65.5t-184.5 179t-68.5 247.5zM145 1089q0 -161 113.5 -274t273.5 -113q161 0 274.5 113.5t113.5 273.5q0 161 -114 274.5t-274 113.5 t-273.5 -113.5t-113.5 -274.5zM317 952q29 2 64 12v295q-25 8 -64 14q0 13 5 35.5t11 32.5q11 0 45 -1t53 -1q17 0 59 2t73 2q77 0 111 -38.5t34 -95.5q0 -43 -22.5 -79t-59.5 -58q30 -60 53 -88q26 -32 59 -32q15 0 34 4q22 -25 18 -59q-49 -27 -101 -27q-26 0 -52.5 20.5 t-45.5 50.5q-48 74 -61 109q-19 0 -47 4v-88q27 -5 58 -19q0 -33 -13 -65q-14 0 -49.5 1t-46.5 1q-7 0 -41.5 -1t-57.5 -1q-16 26 -16 70zM483 1134h41q47 0 61 12q20 17 20 46t-17 46t-45 17h-60v-121z" />
<glyph unicode="&#xaf;" horiz-adv-x="850" d="M133 1199q-22 69 0 136q120 4 274 4q170 0 309 -4q26 -68 0 -136q-160 3 -325 3q-127 0 -258 -3z" />
<glyph unicode="&#xb0;" horiz-adv-x="713" d="M66 1065q0 124 94.5 215t210.5 91q136 0 221 -88t85 -218q0 -125 -92.5 -215t-213.5 -90q-135 0 -220 88t-85 217zM193 1065q0 -76 51.5 -129.5t126.5 -53.5q76 0 127.5 53.5t51.5 129.5q0 77 -51.5 130.5t-127.5 53.5q-75 0 -126.5 -53.5t-51.5 -130.5z" />
<glyph unicode="&#xb1;" horiz-adv-x="1070" d="M113 -20q-14 64 0 135h844q15 -67 0 -135h-844zM113 574q-14 64 0 135h354v324q67 15 135 0v-324h355q15 -67 0 -135h-355v-325q-64 -14 -135 0v325h-354z" />
<glyph unicode="&#xb2;" horiz-adv-x="840" d="M65 621q182 128 319.5 267t137.5 215q0 65 -49.5 108.5t-131.5 43.5q-66 0 -106 -13q-6 -32 -3 -100q-36 -22 -80 -24q-52 79 -65 161q145 108 313 108q117 0 195 -69.5t78 -188.5q0 -200 -348 -442l-98 -52h111q191 0 283 4q34 59 53 134q38 4 80 -9q0 -57 -8.5 -139 t-18.5 -127q-117 4 -359 4h-102q-70 0 -162 -4q-39 48 -39 123z" />
<glyph unicode="&#xb3;" horiz-adv-x="840" d="M82 1277q145 109 324 109q108 0 178 -52.5t70 -143.5q0 -75 -72 -138l-92 -49q108 -14 157.5 -69t49.5 -131q0 -139 -151.5 -239t-422.5 -114q-28 39 -16 93q182 21 311 88.5t129 142.5q0 54 -53.5 88t-140.5 34q-31 0 -58 -4q-12 58 19 113q94 16 141.5 61.5t47.5 89.5 q0 41 -39.5 70t-106.5 29q-71 0 -130 -16q-5 -39 -2 -98q-35 -23 -78 -23q-48 71 -65 159z" />
<glyph unicode="&#xb4;" horiz-adv-x="850" d="M206 1167q114 179 225 343q83 23 199 23q16 -20 16 -47q-203 -227 -361 -376q-53 18 -79 57z" />
<glyph unicode="&#xb5;" horiz-adv-x="1154" d="M172 947q79 25 185 28q-4 -201 -4 -590q0 -118 45 -190t113 -72q28 0 59.5 15.5t56 35.5t53 52.5t45 54t38.5 52.5q0 421 -4 614q79 25 183 28q-7 -352 -7 -694q0 -101 21 -162q57 7 143 33q31 -33 31 -76q-51 -44 -120.5 -74.5t-123.5 -30.5q-37 0 -73 63.5t-47 148.5 q-75 -112 -135.5 -162t-137.5 -50q-54 0 -109 52l-59 83q7 -233 51 -459q-82 -44 -179 -38q-10 104 -15 226t-6 208.5t-1 260.5q0 482 -3 643z" />
<glyph unicode="&#xb6;" horiz-adv-x="993" d="M38 742q0 115 117 181t290 66q-4 -203 -4 -477v-516q-75 -21 -142 0v522q-261 41 -261 224zM354 -414q115 80 174 188q39 71 39 246v492l-4 477q174 -14 337 -84q0 -48 -13 -74q-31 -2 -90 -11.5t-84 -16.5q-4 -194 -4 -291v-451q0 -123 -18 -209t-59.5 -148t-96 -102.5 t-140.5 -81.5q-38 15 -41 66z" />
<glyph unicode="&#xb7;" horiz-adv-x="614" d="M184 573q0 53 39.5 101t93.5 48q44 0 78.5 -31t34.5 -75q0 -54 -39 -99t-94 -49q-42 0 -77.5 31t-35.5 74z" />
<glyph unicode="&#xb8;" horiz-adv-x="850" d="M255 -465q30 13 59.5 29.5t64.5 41.5t56.5 56.5t21.5 62.5q0 41 -38.5 68.5t-105.5 23.5q-16 11 -19 31q8 20 17.5 40t22.5 42t21.5 35.5l25.5 40.5t23 36l76 -2q-8 -16 -24.5 -48t-24 -50t-11.5 -32q93 0 149.5 -44t56.5 -111q0 -90 -99.5 -170t-234.5 -110 q-37 19 -37 60z" />
<glyph unicode="&#xb9;" horiz-adv-x="840" d="M188 1307q57 27 150 51.5t171 31.5v-647q0 -45 3 -126q83 -7 140 -26q0 -65 -19 -93q-48 4 -195 4q-37 0 -110.5 -2t-107.5 -2q-10 12 -16.5 40.5t-6.5 54.5q65 4 162 24q5 27 5 99v516q-64 0 -150 -11q-12 10 -20.5 37.5t-5.5 48.5z" />
<glyph unicode="&#xba;" horiz-adv-x="627" d="M37 864q0 78 32.5 150.5t99 122t151.5 49.5q131 0 200.5 -83.5t69.5 -217.5q0 -78 -32.5 -151t-99.5 -122.5t-152 -49.5q-135 0 -202 81.5t-67 220.5zM62 359q-14 52 0 101h510q13 -50 0 -101h-510zM169 897q0 -53 14 -103t51.5 -89t92.5 -39q53 0 76 20q8 9 18.5 26.5 t23 56.5t12.5 81q0 53 -14 103t-51.5 89.5t-92.5 39.5q-54 0 -76 -20q-8 -8 -19 -26t-23 -57.5t-12 -81.5z" />
<glyph unicode="&#xbb;" horiz-adv-x="1185" d="M111 921q37 51 94 73q65 -71 191 -197t217 -210q7 -61 -13 -105q-255 -242 -399 -397q-22 7 -44 24.5t-32 34.5q40 59 91 128t118 158t80 106q-92 115 -303 385zM564 921q37 51 94 73q65 -71 191 -197t217 -210q7 -61 -13 -105q-255 -242 -399 -397q-22 7 -44 24.5 t-32 34.5q40 59 91 128t118 158t80 106q-92 115 -303 385z" />
<glyph unicode="&#xbc;" horiz-adv-x="1871" d="M129 1307q57 27 150 51.5t171 31.5v-647q0 -45 3 -126q83 -7 140 -26q0 -65 -19 -93q-48 4 -195 4q-37 0 -110.5 -2t-107.5 -2q-10 12 -16.5 40.5t-6.5 54.5q65 4 162 24q5 27 5 99v516q-64 0 -150 -11q-12 10 -20.5 37.5t-5.5 48.5zM400 15l944 1474q71 -19 112 -68 l-946 -1476q-34 7 -64.5 26t-45.5 44zM1026 339q77 89 202.5 250t188.5 259q59 16 152 16l1 -509q102 -2 173 -16q0 -65 -9 -104q-18 0 -51.5 1t-61 1.5t-51.5 0.5l1 -220q-69 -25 -148 -29v249l-369 -3q-11 14 -19.5 45.5t-8.5 58.5zM1174 351q28 1 118 1.5t131 0.5v359 l-28 -77q-95 -137 -221 -284z" />
<glyph unicode="&#xbd;" horiz-adv-x="1999" d="M129 1307q57 27 150 51.5t171 31.5v-647q0 -45 3 -126q83 -7 140 -26q0 -65 -19 -93q-48 4 -195 4q-37 0 -110.5 -2t-107.5 -2q-10 12 -16.5 40.5t-6.5 54.5q65 4 162 24q5 27 5 99v516q-64 0 -150 -11q-12 10 -20.5 37.5t-5.5 48.5zM400 15l944 1474q71 -19 112 -68 l-946 -1476q-34 7 -64.5 26t-45.5 44zM1182 122q182 128 319.5 267t137.5 215q0 65 -49.5 108.5t-131.5 43.5q-66 0 -106 -13q-6 -32 -3 -100q-36 -22 -80 -24q-52 79 -65 161q145 108 313 108q117 0 195 -69.5t78 -188.5q0 -200 -348 -442l-98 -52h111q191 0 283 4 q34 59 53 134q38 4 80 -9q0 -57 -8.5 -139t-18.5 -127q-117 4 -359 4h-102q-70 0 -162 -4q-39 48 -39 123z" />
<glyph unicode="&#xbe;" horiz-adv-x="2061" d="M128 1277q145 109 324 109q108 0 178 -52.5t70 -143.5q0 -75 -72 -138l-92 -49q108 -14 157.5 -69t49.5 -131q0 -139 -151.5 -239t-422.5 -114q-28 39 -16 93q182 21 311 88.5t129 142.5q0 54 -53.5 88t-140.5 34q-31 0 -58 -4q-12 58 19 113q94 16 141.5 61.5t47.5 89.5 q0 41 -39.5 70t-106.5 29q-71 0 -130 -16q-5 -39 -2 -98q-35 -23 -78 -23q-48 71 -65 159zM590 15l944 1474q71 -19 112 -68l-946 -1476q-34 7 -64.5 26t-45.5 44zM1216 339q77 89 202.5 250t188.5 259q59 16 152 16l1 -509q102 -2 173 -16q0 -65 -9 -104q-18 0 -51.5 1 t-61 1.5t-51.5 0.5l1 -220q-69 -25 -148 -29v249l-369 -3q-11 14 -19.5 45.5t-8.5 58.5zM1364 351q28 1 118 1.5t131 0.5v359l-28 -77q-95 -137 -221 -284z" />
<glyph unicode="&#xbf;" horiz-adv-x="854" d="M77 -18q0 54 20.5 104t52 86t71 72t75.5 62t68.5 56.5t47.5 55.5q6 10 9.5 33t4.5 41.5t2 52.5t1 41q24 20 59.5 28t67.5 -3q10 -24 17.5 -88.5t7.5 -102.5q0 -39 -31 -78t-71 -68.5t-93 -73t-84 -81.5q-11 -17 -19.5 -52t-8.5 -65q0 -98 64.5 -177t158.5 -79q76 0 127 7 q17 85 20 206q40 17 80 11q47 -143 47 -281q-48 -44 -128.5 -72.5t-168.5 -28.5q-180 0 -288.5 111t-108.5 283zM372 871q0 46 34.5 80.5t82.5 34.5q47 0 81.5 -34.5t34.5 -80.5q0 -45 -34 -76t-82 -31t-82.5 31t-34.5 76z" />
<glyph unicode="&#xc0;" horiz-adv-x="1426" d="M31 96q75 8 159 38q246 713 395 1222q89 23 181 26q211 -609 466 -1248q100 -10 163 -38q0 -70 -15 -100q-79 8 -223 8q-70 0 -159.5 -4t-130.5 -4q-16 29 -16 100q87 8 180 37q-66 163 -128 321q-114 6 -258 6q-101 0 -203 -3q-50 -156 -107 -323q110 -10 180 -38 q0 -72 -14 -100q-120 8 -227 8q-28 0 -104 -4t-123 -4q-16 29 -16 100zM348 1732q42 72 113 115q186 -111 379 -276q-10 -48 -54 -79q-106 47 -250 114.5t-179 83.5q-12 20 -9 42zM480 579q99 3 197 3q64 0 178 -2q-103 273 -171 477l-13 150q-70 -243 -191 -628z" />
<glyph unicode="&#xc1;" horiz-adv-x="1426" d="M31 96q75 8 159 38q246 713 395 1222q89 23 181 26q211 -609 466 -1248q100 -10 163 -38q0 -70 -15 -100q-79 8 -223 8q-70 0 -159.5 -4t-130.5 -4q-16 29 -16 100q87 8 180 37q-66 163 -128 321q-114 6 -258 6q-101 0 -203 -3q-50 -156 -107 -323q110 -10 180 -38 q0 -72 -14 -100q-120 8 -227 8q-28 0 -104 -4t-123 -4q-16 29 -16 100zM480 579q99 3 197 3q64 0 178 -2q-103 273 -171 477l-13 150q-70 -243 -191 -628zM535 1567q177 134 379 276q83 -56 113 -115q0 -17 -9 -42q-218 -116 -429 -198q-40 25 -54 79z" />
<glyph unicode="&#xc2;" horiz-adv-x="1426" d="M31 96q75 8 159 38q246 713 395 1222q89 23 181 26q211 -609 466 -1248q100 -10 163 -38q0 -70 -15 -100q-79 8 -223 8q-70 0 -159.5 -4t-130.5 -4q-16 29 -16 100q87 8 180 37q-66 163 -128 321q-114 6 -258 6q-101 0 -203 -3q-50 -156 -107 -323q110 -10 180 -38 q0 -72 -14 -100q-120 8 -227 8q-28 0 -104 -4t-123 -4q-16 29 -16 100zM353 1542q177 173 267 275q55 11 121 11q169 -155 284 -275q-22 -43 -67 -81q-122 94 -280 193q-105 -83 -269 -193q-36 27 -56 70zM480 579q99 3 197 3q64 0 178 -2q-103 273 -171 477l-13 150 q-70 -243 -191 -628z" />
<glyph unicode="&#xc3;" horiz-adv-x="1426" d="M31 96q75 8 159 38q246 713 395 1222q89 23 181 26q211 -609 466 -1248q100 -10 163 -38q0 -70 -15 -100q-79 8 -223 8q-70 0 -159.5 -4t-130.5 -4q-16 29 -16 100q87 8 180 37q-66 163 -128 321q-114 6 -258 6q-101 0 -203 -3q-50 -156 -107 -323q110 -10 180 -38 q0 -72 -14 -100q-120 8 -227 8q-28 0 -104 -4t-123 -4q-16 29 -16 100zM350 1575q40 78 110 143t126 65q37 0 77 -21t68.5 -45.5t67 -45.5t73.5 -21q22 0 70 38.5t75 73.5q34 -16 51 -46q-44 -83 -114 -150t-127 -67q-36 0 -76 21t-69.5 45.5t-67 45.5t-69.5 21 q-23 0 -70.5 -36.5t-74.5 -74.5q-17 6 -31.5 21t-18.5 33zM480 579q99 3 197 3q64 0 178 -2q-103 273 -171 477l-13 150q-70 -243 -191 -628z" />
<glyph unicode="&#xc4;" horiz-adv-x="1426" d="M31 96q75 8 159 38q246 713 395 1222q89 23 181 26q211 -609 466 -1248q100 -10 163 -38q0 -70 -15 -100q-79 8 -223 8q-70 0 -159.5 -4t-130.5 -4q-16 29 -16 100q87 8 180 37q-66 163 -128 321q-114 6 -258 6q-101 0 -203 -3q-50 -156 -107 -323q110 -10 180 -38 q0 -72 -14 -100q-120 8 -227 8q-28 0 -104 -4t-123 -4q-16 29 -16 100zM408 1612q0 46 34.5 87.5t81.5 41.5q39 0 69 -26.5t30 -63.5q0 -47 -33.5 -86t-82.5 -42q-37 0 -68 26.5t-31 62.5zM480 579q99 3 197 3q64 0 178 -2q-103 273 -171 477l-13 150q-70 -243 -191 -628z M763 1612q0 46 34 87.5t82 41.5q39 0 69 -26.5t30 -63.5q0 -47 -33.5 -86t-82.5 -42q-37 0 -68 26.5t-31 62.5z" />
<glyph unicode="&#xc5;" horiz-adv-x="1426" d="M31 96q75 8 159 38q246 713 395 1222q89 23 181 26q211 -609 466 -1248q100 -10 163 -38q0 -70 -15 -100q-79 8 -223 8q-70 0 -159.5 -4t-130.5 -4q-16 29 -16 100q87 8 180 37q-66 163 -128 321q-114 6 -258 6q-101 0 -203 -3q-50 -156 -107 -323q110 -10 180 -38 q0 -72 -14 -100q-120 8 -227 8q-28 0 -104 -4t-123 -4q-16 29 -16 100zM473 1686q0 74 69 139.5t154 65.5q96 0 149.5 -50.5t53.5 -148.5q0 -74 -69 -139.5t-154 -65.5q-96 0 -149.5 50.5t-53.5 148.5zM480 579q99 3 197 3q64 0 178 -2q-103 273 -171 477l-13 150 q-70 -243 -191 -628zM589 1695q0 -39 29.5 -71t70.5 -32q44 0 68 19q26 19 26 72q0 40 -29.5 71t-69.5 32q-45 0 -69 -19q-26 -19 -26 -72z" />
<glyph unicode="&#xc6;" horiz-adv-x="1827" d="M20 96q84 8 176 38q325 676 501 1105h-4q-97 32 -176 39q0 71 16 100q43 0 133 -5t137 -5h386q244 0 494 8q2 -20 2 -65q0 -116 -19 -258q-21 -6 -55 -6q-20 0 -29 2q-13 107 -36 184q-149 6 -449 6q-7 -74 -7 -285v-224q245 4 291 8q14 39 27 105q47 0 82 -14 q-18 -83 -25 -179q-4 -68 -4 -143q-4 0 -13.5 -1t-15.5 -1q-24 0 -55 6q-5 11 -20 92q-3 0 -97 0.5t-170 0.5v-299q0 -95 7 -172q320 0 467 6q52 106 80 209q52 0 86 -12q0 -175 -25 -340q-250 8 -502 8h-205q-47 0 -119.5 -4t-111.5 -4q-14 28 -14 100q73 8 160 39 q10 61 10 125v345h-339q-97 -217 -219 -470q104 -10 163 -39q0 -70 -15 -100q-76 8 -221 8q-44 0 -127.5 -4t-128.5 -4q-16 29 -16 100zM638 728q190 0 285 1v225q0 224 -10 285h-62q-97 -249 -213 -511z" />
<glyph unicode="&#xc7;" horiz-adv-x="1198" d="M101 662q0 89 20 178.5t56.5 172t92 153.5t124 124t155.5 83t182 30q197 0 353 -61q0 -70 -14.5 -168t-31.5 -152q-51 -14 -91 2q-6 143 -21 205q-71 12 -205 12q-98 0 -171 -19.5t-100 -44.5q-16 -14 -38.5 -44.5t-53.5 -84.5t-52 -135t-21 -168q0 -123 28.5 -231 t83.5 -194t146.5 -136t208.5 -50q99 0 194 30q23 89 43 232q56 10 98 -6q22 -173 0 -343q-162 -57 -286 -71q-22 -42 -27 -66q93 0 149.5 -44t56.5 -111q0 -90 -99.5 -170t-234.5 -110q-37 19 -37 60q30 13 59.5 29.5t64.5 41.5t56.5 56.5t21.5 62.5q0 41 -38.5 68.5 t-105.5 23.5q-16 11 -19 31q20 50 64 122h-15q-145 0 -259.5 54t-187.5 148.5t-111 219.5t-38 270z" />
<glyph unicode="&#xc8;" horiz-adv-x="1194" d="M67 96q82 8 178 39q10 61 10 125v694q0 222 -10 283q-96 31 -178 39q0 71 16 100q45 0 130.5 -4t131.5 -4h211q244 0 494 8q2 -20 2 -65q0 -116 -19 -258q-42 -11 -84 -4q-13 107 -36 184q-148 6 -469 6q-7 -74 -7 -285v-176q189 0 291 10q14 39 27 105q47 0 82 -14 q-18 -83 -25 -179q-4 -68 -4 -143q-63 0 -84 4q-5 11 -20 92q-82 2 -267 2v-350q0 -95 7 -172q340 0 487 6q52 106 80 209q51 0 86 -12q0 -175 -25 -340q-250 8 -502 8h-225q-46 0 -131.5 -4t-130.5 -4q-16 29 -16 100zM275 1732q42 72 113 115q186 -111 379 -276 q-10 -48 -54 -79q-106 47 -250 114.5t-179 83.5q-12 20 -9 42z" />
<glyph unicode="&#xc9;" horiz-adv-x="1194" d="M67 96q82 8 178 39q10 61 10 125v694q0 222 -10 283q-96 31 -178 39q0 71 16 100q45 0 130.5 -4t131.5 -4h211q244 0 494 8q2 -20 2 -65q0 -116 -19 -258q-42 -11 -84 -4q-13 107 -36 184q-148 6 -469 6q-7 -74 -7 -285v-176q189 0 291 10q14 39 27 105q47 0 82 -14 q-18 -83 -25 -179q-4 -68 -4 -143q-63 0 -84 4q-5 11 -20 92q-82 2 -267 2v-350q0 -95 7 -172q340 0 487 6q52 106 80 209q51 0 86 -12q0 -175 -25 -340q-250 8 -502 8h-225q-46 0 -131.5 -4t-130.5 -4q-16 29 -16 100zM482 1567q177 134 379 276q83 -56 113 -115 q0 -17 -9 -42q-218 -116 -429 -198q-40 25 -54 79z" />
<glyph unicode="&#xca;" horiz-adv-x="1194" d="M67 96q82 8 178 39q10 61 10 125v694q0 222 -10 283q-96 31 -178 39q0 71 16 100q45 0 130.5 -4t131.5 -4h211q244 0 494 8q2 -20 2 -65q0 -116 -19 -258q-42 -11 -84 -4q-13 107 -36 184q-148 6 -469 6q-7 -74 -7 -285v-176q189 0 291 10q14 39 27 105q47 0 82 -14 q-18 -83 -25 -179q-4 -68 -4 -143q-63 0 -84 4q-5 11 -20 92q-82 2 -267 2v-350q0 -95 7 -172q340 0 487 6q52 106 80 209q51 0 86 -12q0 -175 -25 -340q-250 8 -502 8h-225q-46 0 -131.5 -4t-130.5 -4q-16 29 -16 100zM300 1542q177 173 267 275q55 11 121 11 q169 -155 284 -275q-22 -43 -67 -81q-122 94 -280 193q-105 -83 -269 -193q-36 27 -56 70z" />
<glyph unicode="&#xcb;" horiz-adv-x="1194" d="M67 96q82 8 178 39q10 61 10 125v694q0 222 -10 283q-96 31 -178 39q0 71 16 100q45 0 130.5 -4t131.5 -4h211q244 0 494 8q2 -20 2 -65q0 -116 -19 -258q-42 -11 -84 -4q-13 107 -36 184q-148 6 -469 6q-7 -74 -7 -285v-176q189 0 291 10q14 39 27 105q47 0 82 -14 q-18 -83 -25 -179q-4 -68 -4 -143q-63 0 -84 4q-5 11 -20 92q-82 2 -267 2v-350q0 -95 7 -172q340 0 487 6q52 106 80 209q51 0 86 -12q0 -175 -25 -340q-250 8 -502 8h-225q-46 0 -131.5 -4t-130.5 -4q-16 29 -16 100zM355 1612q0 46 34.5 87.5t81.5 41.5q39 0 69 -26.5 t30 -63.5q0 -47 -33.5 -86t-82.5 -42q-37 0 -68 26.5t-31 62.5zM710 1612q0 46 34 87.5t82 41.5q39 0 69 -26.5t30 -63.5q0 -47 -33.5 -86t-82.5 -42q-37 0 -68 26.5t-31 62.5z" />
<glyph unicode="&#xcc;" horiz-adv-x="686" d="M-14 1732q42 72 113 115q186 -111 379 -276q-10 -48 -54 -79q-106 47 -250 114.5t-179 83.5q-12 20 -9 42zM67 96q82 8 178 39q10 61 10 125v694q0 222 -10 283q-96 31 -178 39q0 71 16 100q45 0 130.5 -4t131.5 -4q173 0 252 8q14 -28 14 -100q-62 -29 -167 -39 q-7 -74 -7 -283v-649q0 -96 7 -170q105 -10 167 -39q0 -72 -14 -100q-79 8 -252 8q-46 0 -131.5 -4t-130.5 -4q-16 29 -16 100z" />
<glyph unicode="&#xcd;" horiz-adv-x="686" d="M67 96q82 8 178 39q10 61 10 125v694q0 222 -10 283q-96 31 -178 39q0 71 16 100q45 0 130.5 -4t131.5 -4q173 0 252 8q14 -28 14 -100q-62 -29 -167 -39q-7 -74 -7 -283v-649q0 -96 7 -170q105 -10 167 -39q0 -72 -14 -100q-79 8 -252 8q-46 0 -131.5 -4t-130.5 -4 q-16 29 -16 100zM193 1567q177 134 379 276q83 -56 113 -115q0 -17 -9 -42q-218 -116 -429 -198q-40 25 -54 79z" />
<glyph unicode="&#xce;" horiz-adv-x="686" d="M11 1542q177 173 267 275q55 11 121 11q169 -155 284 -275q-22 -43 -67 -81q-122 94 -280 193q-105 -83 -269 -193q-36 27 -56 70zM67 96q82 8 178 39q10 61 10 125v694q0 222 -10 283q-96 31 -178 39q0 71 16 100q45 0 130.5 -4t131.5 -4q173 0 252 8q14 -28 14 -100 q-62 -29 -167 -39q-7 -74 -7 -283v-649q0 -96 7 -170q105 -10 167 -39q0 -72 -14 -100q-79 8 -252 8q-46 0 -131.5 -4t-130.5 -4q-16 29 -16 100z" />
<glyph unicode="&#xcf;" horiz-adv-x="686" d="M66 1612q0 46 34.5 87.5t81.5 41.5q39 0 69 -26.5t30 -63.5q0 -47 -33.5 -86t-82.5 -42q-37 0 -68 26.5t-31 62.5zM67 96q82 8 178 39q10 61 10 125v694q0 222 -10 283q-96 31 -178 39q0 71 16 100q45 0 130.5 -4t131.5 -4q173 0 252 8q14 -28 14 -100q-62 -29 -167 -39 q-7 -74 -7 -283v-649q0 -96 7 -170q105 -10 167 -39q0 -72 -14 -100q-79 8 -252 8q-46 0 -131.5 -4t-130.5 -4q-16 29 -16 100zM421 1612q0 46 34 87.5t82 41.5q39 0 69 -26.5t30 -63.5q0 -47 -33.5 -86t-82.5 -42q-37 0 -68 26.5t-31 62.5z" />
<glyph unicode="&#xd0;" horiz-adv-x="1360" d="M48 688q-14 59 0 114h207v152q0 222 -10 283q-96 31 -178 39q0 71 16 100q45 0 130.5 -4t131.5 -4q111 0 222.5 6t134.5 6q178 0 307 -88t193.5 -239.5t64.5 -347.5q0 -109 -23.5 -211t-72.5 -193.5t-118.5 -159.5t-169 -107.5t-216.5 -39.5q-36 0 -150 5t-172 5 q-46 0 -131.5 -4t-130.5 -4q-16 29 -16 100q82 8 178 39q10 61 10 125v428h-207zM437 305q0 -95 7 -172q75 -2 176 -2q195 0 278 59q15 11 31.5 26.5t45.5 54t50.5 83.5t38 115.5t16.5 148.5q0 96 -13.5 182.5t-45.5 169t-80.5 142.5t-124.5 96.5t-172 36.5q-34 0 -106 -2.5 t-94 -3.5q-7 -74 -7 -285v-152h245q14 -57 0 -114h-245v-383z" />
<glyph unicode="&#xd1;" horiz-adv-x="1497" d="M67 96q82 8 178 39q10 61 10 125v694q0 222 -10 283q-96 31 -178 39q0 71 16 100q43 0 122 -4t117 -4q127 0 180 -4q313 -511 557 -938l72 -210v738q0 222 -10 283q-96 31 -179 39q0 69 17 100q42 0 123.5 -4t120.5 -4q161 0 232 8q15 -27 15 -100q-62 -29 -168 -39 q-6 -79 -6 -283v-938q-84 -20 -184 -26q-393 706 -635 1091l-57 163v-939q0 -91 6 -170q106 -10 168 -39q0 -73 -15 -100q-79 8 -233 8q-43 0 -120.5 -4t-122.5 -4q-16 29 -16 100zM422 1575q40 78 110 143t126 65q37 0 77 -21t68.5 -45.5t67 -45.5t73.5 -21q22 0 70 38.5 t75 73.5q34 -16 51 -46q-44 -83 -114 -150t-127 -67q-36 0 -76 21t-69.5 45.5t-67 45.5t-69.5 21q-23 0 -70.5 -36.5t-74.5 -74.5q-17 6 -31.5 21t-18.5 33z" />
<glyph unicode="&#xd2;" d="M93 662q0 107 27.5 213.5t82.5 202.5t129.5 170t176 117.5t215.5 43.5q141 0 255 -53.5t188 -148t113.5 -221.5t39.5 -275q0 -107 -27.5 -214.5t-82.5 -203t-130 -169.5t-176.5 -117.5t-214.5 -43.5q-143 0 -257.5 54t-188 149t-112 221.5t-38.5 274.5zM278 745 q0 -98 17.5 -187.5t55 -168.5t91.5 -137t132 -91.5t171 -33.5q51 0 123 21t100 47q13 12 28.5 30.5t42 59.5t46.5 87t35.5 114t15.5 139q0 93 -16.5 181t-53.5 168t-90.5 140t-133 95.5t-175.5 35.5q-50 0 -121.5 -21t-99.5 -46q-16 -15 -38.5 -45t-54.5 -84.5t-53.5 -135.5 t-21.5 -168zM348 1732q42 72 113 115q186 -111 379 -276q-10 -48 -54 -79q-106 47 -250 114.5t-179 83.5q-12 20 -9 42z" />
<glyph unicode="&#xd3;" d="M93 662q0 107 27.5 213.5t82.5 202.5t129.5 170t176 117.5t215.5 43.5q141 0 255 -53.5t188 -148t113.5 -221.5t39.5 -275q0 -107 -27.5 -214.5t-82.5 -203t-130 -169.5t-176.5 -117.5t-214.5 -43.5q-143 0 -257.5 54t-188 149t-112 221.5t-38.5 274.5zM278 745 q0 -98 17.5 -187.5t55 -168.5t91.5 -137t132 -91.5t171 -33.5q51 0 123 21t100 47q13 12 28.5 30.5t42 59.5t46.5 87t35.5 114t15.5 139q0 93 -16.5 181t-53.5 168t-90.5 140t-133 95.5t-175.5 35.5q-50 0 -121.5 -21t-99.5 -46q-16 -15 -38.5 -45t-54.5 -84.5t-53.5 -135.5 t-21.5 -168zM555 1567q177 134 379 276q83 -56 113 -115q0 -17 -9 -42q-218 -116 -429 -198q-40 25 -54 79z" />
<glyph unicode="&#xd4;" d="M93 662q0 107 27.5 213.5t82.5 202.5t129.5 170t176 117.5t215.5 43.5q141 0 255 -53.5t188 -148t113.5 -221.5t39.5 -275q0 -107 -27.5 -214.5t-82.5 -203t-130 -169.5t-176.5 -117.5t-214.5 -43.5q-143 0 -257.5 54t-188 149t-112 221.5t-38.5 274.5zM278 745 q0 -98 17.5 -187.5t55 -168.5t91.5 -137t132 -91.5t171 -33.5q51 0 123 21t100 47q13 12 28.5 30.5t42 59.5t46.5 87t35.5 114t15.5 139q0 93 -16.5 181t-53.5 168t-90.5 140t-133 95.5t-175.5 35.5q-50 0 -121.5 -21t-99.5 -46q-16 -15 -38.5 -45t-54.5 -84.5t-53.5 -135.5 t-21.5 -168zM373 1542q177 173 267 275q55 11 121 11q169 -155 284 -275q-22 -43 -67 -81q-122 94 -280 193q-105 -83 -269 -193q-36 27 -56 70z" />
<glyph unicode="&#xd5;" d="M93 662q0 107 27.5 213.5t82.5 202.5t129.5 170t176 117.5t215.5 43.5q141 0 255 -53.5t188 -148t113.5 -221.5t39.5 -275q0 -107 -27.5 -214.5t-82.5 -203t-130 -169.5t-176.5 -117.5t-214.5 -43.5q-143 0 -257.5 54t-188 149t-112 221.5t-38.5 274.5zM278 745 q0 -98 17.5 -187.5t55 -168.5t91.5 -137t132 -91.5t171 -33.5q51 0 123 21t100 47q13 12 28.5 30.5t42 59.5t46.5 87t35.5 114t15.5 139q0 93 -16.5 181t-53.5 168t-90.5 140t-133 95.5t-175.5 35.5q-50 0 -121.5 -21t-99.5 -46q-16 -15 -38.5 -45t-54.5 -84.5t-53.5 -135.5 t-21.5 -168zM370 1575q40 78 110 143t126 65q37 0 77 -21t68.5 -45.5t67 -45.5t73.5 -21q22 0 70 38.5t75 73.5q34 -16 51 -46q-44 -83 -114 -150t-127 -67q-36 0 -76 21t-69.5 45.5t-67 45.5t-69.5 21q-23 0 -70.5 -36.5t-74.5 -74.5q-17 6 -31.5 21t-18.5 33z" />
<glyph unicode="&#xd6;" d="M93 662q0 107 27.5 213.5t82.5 202.5t129.5 170t176 117.5t215.5 43.5q141 0 255 -53.5t188 -148t113.5 -221.5t39.5 -275q0 -107 -27.5 -214.5t-82.5 -203t-130 -169.5t-176.5 -117.5t-214.5 -43.5q-143 0 -257.5 54t-188 149t-112 221.5t-38.5 274.5zM278 745 q0 -98 17.5 -187.5t55 -168.5t91.5 -137t132 -91.5t171 -33.5q51 0 123 21t100 47q13 12 28.5 30.5t42 59.5t46.5 87t35.5 114t15.5 139q0 93 -16.5 181t-53.5 168t-90.5 140t-133 95.5t-175.5 35.5q-50 0 -121.5 -21t-99.5 -46q-16 -15 -38.5 -45t-54.5 -84.5t-53.5 -135.5 t-21.5 -168zM428 1612q0 46 34.5 87.5t81.5 41.5q39 0 69 -26.5t30 -63.5q0 -47 -33.5 -86t-82.5 -42q-37 0 -68 26.5t-31 62.5zM783 1612q0 46 34 87.5t82 41.5q39 0 69 -26.5t30 -63.5q0 -47 -33.5 -86t-82.5 -42q-37 0 -68 26.5t-31 62.5z" />
<glyph unicode="&#xd7;" horiz-adv-x="1070" d="M169 202l270 270l-270 270q36 58 95 96l270 -271l271 271q58 -36 96 -95l-271 -271l271 -271q-36 -55 -96 -95l-271 271l-270 -271q-55 36 -95 96z" />
<glyph unicode="&#xd8;" d="M93 662q0 107 27.5 213.5t82.5 202.5t129.5 170t176 117.5t215.5 43.5q142 0 260 -60l91 153q51 -14 105 -48l-91 -177q112 -96 171.5 -245t59.5 -321q0 -107 -27.5 -214.5t-82.5 -203t-130 -169.5t-176.5 -117.5t-214.5 -43.5q-155 0 -279 69l-115 -187q-59 12 -98 63 l106 202q-102 96 -156 241.5t-54 310.5zM278 745q0 -301 127 -463l493 904q-99 59 -231 59q-50 0 -121.5 -21t-99.5 -46q-16 -15 -38.5 -45t-54.5 -84.5t-53.5 -135.5t-21.5 -168zM508 188q99 -61 237 -61q51 0 123 21t100 47q13 12 28.5 30.5t42 59.5t46.5 87t35.5 114 t15.5 139q0 304 -133 470z" />
<glyph unicode="&#xd9;" horiz-adv-x="1454" d="M32 1276q0 71 16 100q45 0 130.5 -4t132.5 -4q172 0 252 8q14 -28 14 -100q-62 -29 -168 -39q-6 -79 -6 -283v-426q0 -99 17 -170t56.5 -124.5t110 -80t172.5 -26.5q74 0 143 18t106 50q31 26 58.5 124.5t27.5 186.5v448q0 222 -10 283q-96 31 -179 39q0 69 17 100 q42 0 123 -4t121 -4q161 0 232 8q15 -27 15 -100q-62 -29 -168 -39q-6 -79 -6 -283v-448q0 -120 -31 -216.5t-95 -171t-171.5 -115t-251.5 -40.5q-236 0 -352.5 134.5t-116.5 430.5v426q0 216 -11 283q-96 31 -178 39zM410 1732q42 72 113 115q186 -111 379 -276 q-10 -48 -54 -79q-106 47 -250 114.5t-179 83.5q-12 20 -9 42z" />
<glyph unicode="&#xda;" horiz-adv-x="1454" d="M32 1276q0 71 16 100q45 0 130.5 -4t132.5 -4q172 0 252 8q14 -28 14 -100q-62 -29 -168 -39q-6 -79 -6 -283v-426q0 -99 17 -170t56.5 -124.5t110 -80t172.5 -26.5q74 0 143 18t106 50q31 26 58.5 124.5t27.5 186.5v448q0 222 -10 283q-96 31 -179 39q0 69 17 100 q42 0 123 -4t121 -4q161 0 232 8q15 -27 15 -100q-62 -29 -168 -39q-6 -79 -6 -283v-448q0 -120 -31 -216.5t-95 -171t-171.5 -115t-251.5 -40.5q-236 0 -352.5 134.5t-116.5 430.5v426q0 216 -11 283q-96 31 -178 39zM617 1567q177 134 379 276q83 -56 113 -115 q0 -17 -9 -42q-218 -116 -429 -198q-40 25 -54 79z" />
<glyph unicode="&#xdb;" horiz-adv-x="1454" d="M32 1276q0 71 16 100q45 0 130.5 -4t132.5 -4q172 0 252 8q14 -28 14 -100q-62 -29 -168 -39q-6 -79 -6 -283v-426q0 -99 17 -170t56.5 -124.5t110 -80t172.5 -26.5q74 0 143 18t106 50q31 26 58.5 124.5t27.5 186.5v448q0 222 -10 283q-96 31 -179 39q0 69 17 100 q42 0 123 -4t121 -4q161 0 232 8q15 -27 15 -100q-62 -29 -168 -39q-6 -79 -6 -283v-448q0 -120 -31 -216.5t-95 -171t-171.5 -115t-251.5 -40.5q-236 0 -352.5 134.5t-116.5 430.5v426q0 216 -11 283q-96 31 -178 39zM435 1542q177 173 267 275q55 11 121 11 q169 -155 284 -275q-22 -43 -67 -81q-122 94 -280 193q-105 -83 -269 -193q-36 27 -56 70z" />
<glyph unicode="&#xdc;" horiz-adv-x="1454" d="M32 1276q0 71 16 100q45 0 130.5 -4t132.5 -4q172 0 252 8q14 -28 14 -100q-62 -29 -168 -39q-6 -79 -6 -283v-426q0 -99 17 -170t56.5 -124.5t110 -80t172.5 -26.5q74 0 143 18t106 50q31 26 58.5 124.5t27.5 186.5v448q0 222 -10 283q-96 31 -179 39q0 69 17 100 q42 0 123 -4t121 -4q161 0 232 8q15 -27 15 -100q-62 -29 -168 -39q-6 -79 -6 -283v-448q0 -120 -31 -216.5t-95 -171t-171.5 -115t-251.5 -40.5q-236 0 -352.5 134.5t-116.5 430.5v426q0 216 -11 283q-96 31 -178 39zM490 1612q0 46 34.5 87.5t81.5 41.5q39 0 69 -26.5 t30 -63.5q0 -47 -33.5 -86t-82.5 -42q-37 0 -68 26.5t-31 62.5zM845 1612q0 46 34 87.5t82 41.5q39 0 69 -26.5t30 -63.5q0 -47 -33.5 -86t-82.5 -42q-37 0 -68 26.5t-31 62.5z" />
<glyph unicode="&#xdd;" d="M51 1276q0 71 16 100q43 0 130.5 -4t134.5 -4q130 0 250 8q14 -28 14 -100q-61 -26 -176 -39q133 -213 267 -465l46 -133q173 345 318 599q-97 30 -179 38q0 71 16 100q45 0 120.5 -4t121.5 -4q138 0 217 8q15 -30 15 -100q-61 -29 -165 -39q-174 -300 -379 -721v-211 q0 -91 6 -170q125 -12 183 -39q0 -72 -15 -102q-118 12 -266 12q-46 0 -139 -6t-138 -6q-16 29 -16 102q103 10 193 39q10 61 10 125v219q-178 346 -429 759q-85 31 -156 38zM583 1567q177 134 379 276q83 -56 113 -115q0 -17 -9 -42q-218 -116 -429 -198q-40 25 -54 79z " />
<glyph unicode="&#xde;" horiz-adv-x="1153" d="M67 96q82 8 178 39q10 61 10 125v694q0 222 -10 283q-96 31 -178 39q0 71 16 100q45 0 130.5 -4t131.5 -4q173 0 252 8q14 -28 14 -100q-62 -29 -167 -39q-4 -43 -6 -127q153 19 288 19q95 0 168 -32t116.5 -87t65 -122.5t21.5 -143.5q0 -61 -19.5 -127.5t-58.5 -129.5 t-91.5 -113t-125 -80.5t-152.5 -30.5q-110 0 -213 21q0 -83 7 -149q157 -15 208 -39q0 -74 -14 -102q-118 12 -289 12q-46 0 -133.5 -6t-132.5 -6q-16 29 -16 102zM437 409q73 -9 146 -9q77 0 147.5 20.5t93.5 41.5q36 28 61 97t25 128q0 44 -7 85t-24 82t-43.5 71.5 t-69.5 49.5t-97 19q-143 0 -232 -11v-574z" />
<glyph unicode="&#xdf;" horiz-adv-x="1264" d="M43 90q89 9 164 35q8 60 8 115v604q-73 2 -156 26q-11 49 -4 96l160 6v68q0 124 37 225.5t99 166t139.5 99t161.5 34.5q68 0 136.5 -21.5t129.5 -64t99.5 -116t38.5 -166.5q0 -40 -20.5 -81.5t-51.5 -76t-67.5 -72t-67.5 -69t-51.5 -67.5t-20.5 -67q0 -35 24 -66 t62.5 -56.5t84.5 -51.5t92.5 -57t85 -66t62.5 -85.5t24 -109.5q0 -126 -96.5 -211.5t-242.5 -85.5q-98 0 -192 25.5t-135 48.5q-13 167 26 287q45 15 97 -6q0 -76 13 -170q70 -66 183 -66q40 0 75.5 12t54.5 29q29 26 29 107q0 38 -23.5 72t-61 61t-82.5 54t-90.5 56.5 t-83 62.5t-61 78.5t-23.5 98.5q0 44 28 95.5t67.5 96.5t79 86t67.5 74t28 50q0 130 -78.5 213.5t-173.5 83.5q-46 0 -86 -12.5t-52 -26.5q-90 -108 -90 -408l-2 -696v-280q-46 1 -82 1q-42 0 -124 -2t-124 -2q-14 28 -14 92z" />
<glyph unicode="&#xe0;" horiz-adv-x="1030" d="M85 221q0 53 21 100t55.5 82.5t83 66t98 51.5t106.5 38.5t103 27.5t93 17q0 126 -37 193t-135 67q-66 0 -168 -24q-10 -58 -7 -152q-37 -22 -98 -26q-68 108 -80 196q176 133 373 133q41 0 81 -7t86.5 -28.5t80.5 -55.5t57 -94t23 -138q0 -60 -2 -188t-2 -199 q0 -101 20 -162q57 7 143 33q31 -31 31 -76q-50 -43 -120 -74t-124 -31q-68 0 -106 176q-29 -30 -77.5 -65.5t-125.5 -70t-141 -34.5q-103 0 -167.5 66t-64.5 178zM199 1466q0 24 11 40q67 36 154 42q53 -56 126 -165t130 -212q-36 -43 -82 -53q-48 49 -162.5 167 t-176.5 181zM268 272q0 -58 38.5 -98.5t114.5 -40.5q59 0 123.5 37t100.5 70v241q-73 -5 -194 -34.5t-142 -50.5q-18 -18 -29.5 -54t-11.5 -70z" />
<glyph unicode="&#xe1;" horiz-adv-x="1030" d="M85 221q0 53 21 100t55.5 82.5t83 66t98 51.5t106.5 38.5t103 27.5t93 17q0 126 -37 193t-135 67q-66 0 -168 -24q-10 -58 -7 -152q-37 -22 -98 -26q-68 108 -80 196q176 133 373 133q41 0 81 -7t86.5 -28.5t80.5 -55.5t57 -94t23 -138q0 -60 -2 -188t-2 -199 q0 -101 20 -162q57 7 143 33q31 -31 31 -76q-50 -43 -120 -74t-124 -31q-68 0 -106 176q-29 -30 -77.5 -65.5t-125.5 -70t-141 -34.5q-103 0 -167.5 66t-64.5 178zM268 272q0 -58 38.5 -98.5t114.5 -40.5q59 0 123.5 37t100.5 70v241q-73 -5 -194 -34.5t-142 -50.5 q-18 -18 -29.5 -54t-11.5 -70zM365 1167q114 179 225 343q83 23 199 23q16 -20 16 -47q-203 -227 -361 -376q-53 18 -79 57z" />
<glyph unicode="&#xe2;" horiz-adv-x="1030" d="M85 221q0 53 21 100t55.5 82.5t83 66t98 51.5t106.5 38.5t103 27.5t93 17q0 126 -37 193t-135 67q-66 0 -168 -24q-10 -58 -7 -152q-37 -22 -98 -26q-68 108 -80 196q176 133 373 133q41 0 81 -7t86.5 -28.5t80.5 -55.5t57 -94t23 -138q0 -60 -2 -188t-2 -199 q0 -101 20 -162q57 7 143 33q31 -31 31 -76q-50 -43 -120 -74t-124 -31q-68 0 -106 176q-29 -30 -77.5 -65.5t-125.5 -70t-141 -34.5q-103 0 -167.5 66t-64.5 178zM191 1162q118 171 230 353q66 16 127 16q123 -183 255 -363q-28 -43 -74 -63q-30 28 -65.5 64.5t-55.5 58 t-65 71.5t-58 64q-126 -150 -225 -258q-47 15 -69 57zM268 272q0 -58 38.5 -98.5t114.5 -40.5q59 0 123.5 37t100.5 70v241q-73 -5 -194 -34.5t-142 -50.5q-18 -18 -29.5 -54t-11.5 -70z" />
<glyph unicode="&#xe3;" horiz-adv-x="1030" d="M85 221q0 53 21 100t55.5 82.5t83 66t98 51.5t106.5 38.5t103 27.5t93 17q0 126 -37 193t-135 67q-66 0 -168 -24q-10 -58 -7 -152q-37 -22 -98 -26q-68 108 -80 196q176 133 373 133q41 0 81 -7t86.5 -28.5t80.5 -55.5t57 -94t23 -138q0 -60 -2 -188t-2 -199 q0 -101 20 -162q57 7 143 33q31 -31 31 -76q-50 -43 -120 -74t-124 -31q-68 0 -106 176q-29 -30 -77.5 -65.5t-125.5 -70t-141 -34.5q-103 0 -167.5 66t-64.5 178zM143 1207q41 80 112.5 146t128.5 66q38 0 78.5 -21.5t69.5 -46.5t68 -46.5t75 -21.5q22 0 71 39.5t77 74.5 q35 -16 52 -47q-45 -85 -116 -153t-130 -68q-37 0 -77.5 21.5t-70.5 46.5t-68 46.5t-71 21.5q-24 0 -72.5 -37t-75.5 -76q-41 14 -51 55zM268 272q0 -58 38.5 -98.5t114.5 -40.5q59 0 123.5 37t100.5 70v241q-73 -5 -194 -34.5t-142 -50.5q-18 -18 -29.5 -54t-11.5 -70z" />
<glyph unicode="&#xe4;" horiz-adv-x="1030" d="M85 221q0 53 21 100t55.5 82.5t83 66t98 51.5t106.5 38.5t103 27.5t93 17q0 126 -37 193t-135 67q-66 0 -168 -24q-10 -58 -7 -152q-37 -22 -98 -26q-68 108 -80 196q176 133 373 133q41 0 81 -7t86.5 -28.5t80.5 -55.5t57 -94t23 -138q0 -60 -2 -188t-2 -199 q0 -101 20 -162q57 7 143 33q31 -31 31 -76q-50 -43 -120 -74t-124 -31q-68 0 -106 176q-29 -30 -77.5 -65.5t-125.5 -70t-141 -34.5q-103 0 -167.5 66t-64.5 178zM191 1291q0 50 37 95t87 45q42 0 74.5 -28.5t32.5 -70.5q0 -51 -36.5 -93.5t-88.5 -45.5q-40 0 -73 28.5 t-33 69.5zM268 272q0 -58 38.5 -98.5t114.5 -40.5q59 0 123.5 37t100.5 70v241q-73 -5 -194 -34.5t-142 -50.5q-18 -18 -29.5 -54t-11.5 -70zM564 1291q0 50 37 95t88 45q41 0 73.5 -28.5t32.5 -70.5q0 -51 -36 -93.5t-88 -45.5q-40 0 -73.5 28.5t-33.5 69.5z" />
<glyph unicode="&#xe5;" horiz-adv-x="1030" d="M85 221q0 53 21 100t55.5 82.5t83 66t98 51.5t106.5 38.5t103 27.5t93 17q0 126 -37 193t-135 67q-66 0 -168 -24q-10 -58 -7 -152q-37 -22 -98 -26q-68 108 -80 196q176 133 373 133q41 0 81 -7t86.5 -28.5t80.5 -55.5t57 -94t23 -138q0 -60 -2 -188t-2 -199 q0 -101 20 -162q57 7 143 33q31 -31 31 -76q-50 -43 -120 -74t-124 -31q-68 0 -106 176q-29 -30 -77.5 -65.5t-125.5 -70t-141 -34.5q-103 0 -167.5 66t-64.5 178zM268 272q0 -58 38.5 -98.5t114.5 -40.5q59 0 123.5 37t100.5 70v241q-73 -5 -194 -34.5t-142 -50.5 q-18 -18 -29.5 -54t-11.5 -70zM269 1301q0 76 70 142.5t157 66.5q98 0 152.5 -51.5t54.5 -151.5q0 -76 -70 -142.5t-157 -66.5q-98 0 -152.5 51.5t-54.5 151.5zM387 1310q0 -40 30 -72.5t72 -32.5q45 0 69 19q27 21 27 74q0 41 -30 72.5t-71 32.5q-46 0 -70 -19 q-27 -21 -27 -74z" />
<glyph unicode="&#xe6;" horiz-adv-x="1553" d="M85 221q0 53 21 100t55.5 82.5t83 66t98 51.5t106.5 38.5t103 27.5t93 17q0 126 -37 193t-135 67q-66 0 -168 -24q-10 -58 -7 -152q-37 -22 -98 -26q-68 108 -80 196q176 133 373 133q137 0 228 -73l51 -89q61 76 141.5 119t173.5 43q87 0 153 -21.5t105.5 -55.5 t64.5 -83.5t34 -98.5t9 -107q0 -78 -14 -125q-157 -15 -332 -15q-160 0 -290 10q3 -55 12.5 -105t31 -99.5t51.5 -85.5t77.5 -58t105.5 -22q135 0 325 74q32 -21 35 -74q-249 -148 -395 -148q-252 0 -355 201q-201 -201 -388 -201q-103 0 -167.5 66t-64.5 178zM268 272 q0 -58 38.5 -98.5t114.5 -40.5q95 0 251 128q-28 91 -28 206v14q-73 -5 -193.5 -34.5t-141.5 -50.5q-18 -18 -29.5 -54t-11.5 -70zM821 599q91 -7 221 -7q179 0 239 12q-4 61 -14 101.5t-32.5 78t-66.5 56t-110 18.5q-35 0 -79 -12t-54 -21q-32 -25 -62.5 -88.5 t-41.5 -137.5z" />
<glyph unicode="&#xe7;" horiz-adv-x="923" d="M80 467q0 93 31.5 184.5t88 166t143.5 121t188 46.5q71 0 138 -14t98.5 -25.5t88.5 -36.5q0 -61 -18 -133t-42 -116q-54 -9 -99 5q-3 21 -10 79t-11 92q-48 14 -153 14q-54 0 -99 -10.5t-59 -24.5q-41 -33 -76 -114t-35 -171q0 -57 8 -111.5t28.5 -108.5t51 -94.5 t80 -65.5t111.5 -25q127 0 305 70q31 -20 35 -78q-63 -47 -153 -86t-170 -50q-24 -49 -30 -71q93 0 149.5 -44t56.5 -111q0 -90 -99.5 -170t-234.5 -110q-37 19 -37 60q30 13 59.5 29.5t64.5 41.5t56.5 56.5t21.5 62.5q0 41 -38.5 68.5t-105.5 23.5q-16 11 -19 31 q22 55 69 130q-96 7 -170.5 48.5t-120 109t-69 151.5t-23.5 180z" />
<glyph unicode="&#xe8;" horiz-adv-x="989" d="M80 467q0 128 55.5 247.5t159 198t228.5 78.5q87 0 153 -21.5t105.5 -55.5t64.5 -83.5t34 -98.5t9 -107q0 -78 -14 -125q-158 -15 -332 -15q-160 0 -290 10q3 -55 12.5 -105t31 -99.5t51.5 -85.5t77.5 -58t105.5 -22q135 0 325 74q32 -21 35 -74q-249 -148 -395 -148 q-107 0 -188 37.5t-130 105t-73.5 155t-24.5 192.5zM238 1466q0 24 11 40q67 36 154 42q53 -56 126 -165t130 -212q-36 -43 -82 -53q-48 49 -162.5 167t-176.5 181zM257 599q91 -7 221 -7q179 0 239 12q-4 61 -14 101.5t-32.5 78t-66.5 56t-110 18.5q-35 0 -79 -12t-54 -21 q-32 -25 -62.5 -88.5t-41.5 -137.5z" />
<glyph unicode="&#xe9;" horiz-adv-x="989" d="M80 467q0 128 55.5 247.5t159 198t228.5 78.5q87 0 153 -21.5t105.5 -55.5t64.5 -83.5t34 -98.5t9 -107q0 -78 -14 -125q-158 -15 -332 -15q-160 0 -290 10q3 -55 12.5 -105t31 -99.5t51.5 -85.5t77.5 -58t105.5 -22q135 0 325 74q32 -21 35 -74q-249 -148 -395 -148 q-107 0 -188 37.5t-130 105t-73.5 155t-24.5 192.5zM257 599q91 -7 221 -7q179 0 239 12q-4 61 -14 101.5t-32.5 78t-66.5 56t-110 18.5q-35 0 -79 -12t-54 -21q-32 -25 -62.5 -88.5t-41.5 -137.5zM404 1167q114 179 225 343q83 23 199 23q16 -20 16 -47 q-203 -227 -361 -376q-53 18 -79 57z" />
<glyph unicode="&#xea;" horiz-adv-x="989" d="M80 467q0 128 55.5 247.5t159 198t228.5 78.5q87 0 153 -21.5t105.5 -55.5t64.5 -83.5t34 -98.5t9 -107q0 -78 -14 -125q-158 -15 -332 -15q-160 0 -290 10q3 -55 12.5 -105t31 -99.5t51.5 -85.5t77.5 -58t105.5 -22q135 0 325 74q32 -21 35 -74q-249 -148 -395 -148 q-107 0 -188 37.5t-130 105t-73.5 155t-24.5 192.5zM230 1162q118 171 230 353q66 16 127 16q123 -183 255 -363q-28 -43 -74 -63q-30 28 -65.5 64.5t-55.5 58t-65 71.5t-58 64q-126 -150 -225 -258q-47 15 -69 57zM257 599q91 -7 221 -7q179 0 239 12q-4 61 -14 101.5 t-32.5 78t-66.5 56t-110 18.5q-35 0 -79 -12t-54 -21q-32 -25 -62.5 -88.5t-41.5 -137.5z" />
<glyph unicode="&#xeb;" horiz-adv-x="989" d="M80 467q0 128 55.5 247.5t159 198t228.5 78.5q87 0 153 -21.5t105.5 -55.5t64.5 -83.5t34 -98.5t9 -107q0 -78 -14 -125q-158 -15 -332 -15q-160 0 -290 10q3 -55 12.5 -105t31 -99.5t51.5 -85.5t77.5 -58t105.5 -22q135 0 325 74q32 -21 35 -74q-249 -148 -395 -148 q-107 0 -188 37.5t-130 105t-73.5 155t-24.5 192.5zM230 1291q0 50 37 95t87 45q42 0 74.5 -28.5t32.5 -70.5q0 -51 -36.5 -93.5t-88.5 -45.5q-40 0 -73 28.5t-33 69.5zM257 599q91 -7 221 -7q179 0 239 12q-4 61 -14 101.5t-32.5 78t-66.5 56t-110 18.5q-35 0 -79 -12 t-54 -21q-32 -25 -62.5 -88.5t-41.5 -137.5zM603 1291q0 50 37 95t88 45q41 0 73.5 -28.5t32.5 -70.5q0 -51 -36 -93.5t-88 -45.5q-40 0 -73.5 28.5t-33.5 69.5z" />
<glyph unicode="&#xec;" horiz-adv-x="612" d="M34 1491q1 20 14 39q70 30 157 30q49 -59 113.5 -173.5t113.5 -221.5q-38 -39 -86 -47q-51 60 -154.5 185t-157.5 188zM38 905q157 67 367 84q-4 -203 -4 -477v-231q0 -80 6 -154q92 -10 154 -37q0 -66 -13 -92q-73 4 -229 4q-43 0 -126.5 -2t-121.5 -2q-14 28 -14 92 q89 9 164 35q8 60 8 115v272l-4 291q-25 7 -84 16.5t-90 11.5q-13 26 -13 74z" />
<glyph unicode="&#xed;" horiz-adv-x="612" d="M38 905q157 67 367 84q-4 -203 -4 -477v-231q0 -80 6 -154q92 -10 154 -37q0 -66 -13 -92q-73 4 -229 4q-43 0 -126.5 -2t-121.5 -2q-14 28 -14 92q89 9 164 35q8 60 8 115v272l-4 291q-25 7 -84 16.5t-90 11.5q-13 26 -13 74zM113 1167q114 179 225 343q83 23 199 23 q16 -20 16 -47q-203 -227 -361 -376q-53 18 -79 57z" />
<glyph unicode="&#xee;" horiz-adv-x="612" d="M33 1162q41 61 101.5 170t96.5 183q66 16 127 16q130 -233 222 -363q-28 -43 -74 -63q-59 63 -210 258q-106 -146 -194 -258q-47 15 -69 57zM38 905q157 67 367 84q-4 -203 -4 -477v-231q0 -80 6 -154q92 -10 154 -37q0 -66 -13 -92q-73 4 -229 4q-43 0 -126.5 -2 t-121.5 -2q-14 28 -14 92q89 9 164 35q8 60 8 115v272l-4 291q-25 7 -84 16.5t-90 11.5q-13 26 -13 74z" />
<glyph unicode="&#xef;" horiz-adv-x="612" d="M12 1292q0 48 36 91.5t85 43.5q41 0 72.5 -27.5t31.5 -68.5q0 -50 -35.5 -91t-86.5 -43q-38 0 -70.5 27.5t-32.5 67.5zM38 905q157 67 367 84q-4 -203 -4 -477v-231q0 -80 6 -154q92 -10 154 -37q0 -66 -13 -92q-73 4 -229 4q-43 0 -126.5 -2t-121.5 -2q-14 28 -14 92 q89 9 164 35q8 60 8 115v272l-4 291q-25 7 -84 16.5t-90 11.5q-13 26 -13 74zM365 1292q0 48 36 91.5t86 43.5q40 0 71.5 -27.5t31.5 -68.5q0 -50 -35.5 -91t-85.5 -43q-39 0 -71.5 27.5t-32.5 67.5z" />
<glyph unicode="&#xf0;" horiz-adv-x="1061" d="M80 451q0 139 53 260t153.5 197t225.5 76q77 0 143 -29l112 -96q-43 219 -203 394l-200 -139q-46 43 -65 94l183 127q-79 74 -200 163q17 29 31.5 43t42.5 26q136 -75 235 -152l196 137q44 -39 65 -94l-173 -120q156 -149 224 -327t68 -397q0 -174 -56.5 -319.5 t-165 -234.5t-248.5 -89q-137 0 -233.5 64.5t-142 171t-45.5 244.5zM254 509q0 -68 18 -137t51.5 -128.5t88 -97t121.5 -37.5q44 0 91.5 14.5t65.5 33.5q36 39 58 88.5t30.5 110t10.5 98t2 100.5v20q-9 123 -99 200.5t-202 77.5q-69 0 -123 -30q-34 -19 -73.5 -109 t-39.5 -204z" />
<glyph unicode="&#xf1;" horiz-adv-x="1205" d="M39 905q62 27 155 50.5t168 29.5q14 -52 28 -136q172 142 345 142q282 0 282 -327v-383q0 -80 6 -154q92 -10 154 -37q0 -66 -13 -92q-73 4 -229 4q-43 0 -126.5 -2t-121.5 -2q-14 28 -14 92q89 9 164 35q8 60 8 115v344q0 64 -6.5 107t-25.5 82t-57 58t-97 19 q-122 0 -261 -94q3 -210 3 -244v-231q0 -80 6 -154q92 -10 154 -37q0 -66 -13 -92q-73 4 -229 4q-43 0 -126.5 -2t-121.5 -2q-14 28 -14 92q89 9 164 35q8 60 8 115v272l-4 287q-66 21 -176 32q-15 43 -10 74zM292 1207q41 80 112.5 146t128.5 66q38 0 78.5 -21.5 t69.5 -46.5t68 -46.5t75 -21.5q22 0 71 39.5t77 74.5q35 -16 52 -47q-45 -85 -116 -153t-130 -68q-37 0 -77.5 21.5t-70.5 46.5t-68 46.5t-71 21.5q-24 0 -72.5 -37t-75.5 -76q-41 14 -51 55z" />
<glyph unicode="&#xf2;" horiz-adv-x="1047" d="M80 464q0 94 31.5 187t88 169t144.5 123.5t191 47.5q108 0 192 -37.5t135.5 -104.5t78 -156t26.5 -196q0 -94 -31.5 -187t-88 -169t-144.5 -123t-191 -47q-141 0 -240 64.5t-145.5 173.5t-46.5 255zM230 1466q0 24 11 40q67 36 154 42q53 -56 126 -165t130 -212 q-36 -43 -82 -53q-48 49 -162.5 167t-176.5 181zM254 522q0 -55 9.5 -110t31.5 -110.5t55 -98t84.5 -69t114.5 -26.5q37 0 80.5 11t60.5 28q14 12 35.5 44.5t44.5 102.5t23 146q0 55 -9.5 110t-31.5 110.5t-55 98t-84.5 69t-114.5 26.5q-36 0 -80 -11t-61 -28 q-16 -16 -36 -46.5t-43.5 -100.5t-23.5 -146z" />
<glyph unicode="&#xf3;" horiz-adv-x="1047" d="M80 464q0 94 31.5 187t88 169t144.5 123.5t191 47.5q108 0 192 -37.5t135.5 -104.5t78 -156t26.5 -196q0 -94 -31.5 -187t-88 -169t-144.5 -123t-191 -47q-141 0 -240 64.5t-145.5 173.5t-46.5 255zM254 522q0 -55 9.5 -110t31.5 -110.5t55 -98t84.5 -69t114.5 -26.5 q37 0 80.5 11t60.5 28q14 12 35.5 44.5t44.5 102.5t23 146q0 55 -9.5 110t-31.5 110.5t-55 98t-84.5 69t-114.5 26.5q-36 0 -80 -11t-61 -28q-16 -16 -36 -46.5t-43.5 -100.5t-23.5 -146zM396 1167q114 179 225 343q83 23 199 23q16 -20 16 -47q-203 -227 -361 -376 q-53 18 -79 57z" />
<glyph unicode="&#xf4;" horiz-adv-x="1047" d="M80 464q0 94 31.5 187t88 169t144.5 123.5t191 47.5q108 0 192 -37.5t135.5 -104.5t78 -156t26.5 -196q0 -94 -31.5 -187t-88 -169t-144.5 -123t-191 -47q-141 0 -240 64.5t-145.5 173.5t-46.5 255zM222 1162q118 171 230 353q66 16 127 16q123 -183 255 -363 q-28 -43 -74 -63q-30 28 -65.5 64.5t-55.5 58t-65 71.5t-58 64q-126 -150 -225 -258q-47 15 -69 57zM254 522q0 -55 9.5 -110t31.5 -110.5t55 -98t84.5 -69t114.5 -26.5q37 0 80.5 11t60.5 28q14 12 35.5 44.5t44.5 102.5t23 146q0 55 -9.5 110t-31.5 110.5t-55 98t-84.5 69 t-114.5 26.5q-36 0 -80 -11t-61 -28q-16 -16 -36 -46.5t-43.5 -100.5t-23.5 -146z" />
<glyph unicode="&#xf5;" horiz-adv-x="1047" d="M80 464q0 94 31.5 187t88 169t144.5 123.5t191 47.5q108 0 192 -37.5t135.5 -104.5t78 -156t26.5 -196q0 -94 -31.5 -187t-88 -169t-144.5 -123t-191 -47q-141 0 -240 64.5t-145.5 173.5t-46.5 255zM174 1207q41 80 112.5 146t128.5 66q38 0 78.5 -21.5t69.5 -46.5 t68 -46.5t75 -21.5q22 0 71 39.5t77 74.5q35 -16 52 -47q-45 -85 -116 -153t-130 -68q-37 0 -77.5 21.5t-70.5 46.5t-68 46.5t-71 21.5q-24 0 -72.5 -37t-75.5 -76q-41 14 -51 55zM254 522q0 -55 9.5 -110t31.5 -110.5t55 -98t84.5 -69t114.5 -26.5q37 0 80.5 11t60.5 28 q14 12 35.5 44.5t44.5 102.5t23 146q0 55 -9.5 110t-31.5 110.5t-55 98t-84.5 69t-114.5 26.5q-36 0 -80 -11t-61 -28q-16 -16 -36 -46.5t-43.5 -100.5t-23.5 -146z" />
<glyph unicode="&#xf6;" horiz-adv-x="1047" d="M80 464q0 94 31.5 187t88 169t144.5 123.5t191 47.5q108 0 192 -37.5t135.5 -104.5t78 -156t26.5 -196q0 -94 -31.5 -187t-88 -169t-144.5 -123t-191 -47q-141 0 -240 64.5t-145.5 173.5t-46.5 255zM222 1291q0 50 37 95t87 45q42 0 74.5 -28.5t32.5 -70.5 q0 -51 -36.5 -93.5t-88.5 -45.5q-40 0 -73 28.5t-33 69.5zM254 522q0 -55 9.5 -110t31.5 -110.5t55 -98t84.5 -69t114.5 -26.5q37 0 80.5 11t60.5 28q14 12 35.5 44.5t44.5 102.5t23 146q0 55 -9.5 110t-31.5 110.5t-55 98t-84.5 69t-114.5 26.5q-36 0 -80 -11t-61 -28 q-16 -16 -36 -46.5t-43.5 -100.5t-23.5 -146zM595 1291q0 50 37 95t88 45q41 0 73.5 -28.5t32.5 -70.5q0 -51 -36 -93.5t-88 -45.5q-40 0 -73.5 28.5t-33.5 69.5z" />
<glyph unicode="&#xf7;" horiz-adv-x="1070" d="M113 405q-14 64 0 135h844q15 -68 0 -135h-844zM430 156q0 41 31.5 69.5t76.5 28.5q44 0 75 -28.5t31 -69.5q0 -43 -31.5 -74t-74.5 -31q-44 0 -76 31t-32 74zM430 794q0 40 31.5 68t76.5 28q44 0 75 -28t31 -68q0 -44 -31 -75t-75 -31t-76 31.5t-32 74.5z" />
<glyph unicode="&#xf8;" horiz-adv-x="1047" d="M80 465q0 94 31.5 187t88 169t144.5 123t191 47q79 0 148 -25l73 151q70 -11 106 -49l-76 -157q88 -67 134.5 -177t46.5 -236q0 -94 -31.5 -187t-88 -169t-144.5 -123.5t-191 -47.5q-88 0 -167 29l-71 -150q-67 9 -108 53l77 157q-81 66 -122 172.5t-41 232.5zM254 522 q0 -194 72 -301l295 607q-55 26 -123 26q-37 0 -80.5 -11t-60.5 -28q-14 -12 -35.5 -44.5t-44.5 -102.5t-23 -146zM417 138q58 -29 132 -29q36 0 80 10.5t61 27.5q16 16 36 46.5t43.5 100.5t23.5 146q0 202 -80 311z" />
<glyph unicode="&#xf9;" horiz-adv-x="1177" d="M30 870q0 50 13 94q27 0 71 -1t81.5 -1.5t74.5 -0.5q3 0 90 3q-4 -201 -4 -579q0 -262 153 -262q58 0 139.5 52t137.5 108q0 395 -4 546q-63 26 -144 41q0 50 13 94q27 0 71 -1t81.5 -1.5t74.5 -0.5q9 0 23 0.5t32.5 1.5t28.5 1q-4 -201 -4 -683q0 -101 21 -162 q57 7 143 33q31 -33 31 -76q-51 -44 -120.5 -74.5t-123.5 -30.5q-73 0 -112 201q-92 -102 -172.5 -151.5t-166.5 -49.5q-277 0 -280 334q0 363 -4 524q-63 26 -144 41zM249 1466q0 24 11 40q67 36 154 42q53 -56 126 -165t130 -212q-36 -43 -82 -53q-48 49 -162.5 167 t-176.5 181z" />
<glyph unicode="&#xfa;" horiz-adv-x="1177" d="M30 870q0 50 13 94q27 0 71 -1t81.5 -1.5t74.5 -0.5q3 0 90 3q-4 -201 -4 -579q0 -262 153 -262q58 0 139.5 52t137.5 108q0 395 -4 546q-63 26 -144 41q0 50 13 94q27 0 71 -1t81.5 -1.5t74.5 -0.5q9 0 23 0.5t32.5 1.5t28.5 1q-4 -201 -4 -683q0 -101 21 -162 q57 7 143 33q31 -33 31 -76q-51 -44 -120.5 -74.5t-123.5 -30.5q-73 0 -112 201q-92 -102 -172.5 -151.5t-166.5 -49.5q-277 0 -280 334q0 363 -4 524q-63 26 -144 41zM415 1167q114 179 225 343q83 23 199 23q16 -20 16 -47q-203 -227 -361 -376q-53 18 -79 57z" />
<glyph unicode="&#xfb;" horiz-adv-x="1177" d="M30 870q0 50 13 94q27 0 71 -1t81.5 -1.5t74.5 -0.5q3 0 90 3q-4 -201 -4 -579q0 -262 153 -262q58 0 139.5 52t137.5 108q0 395 -4 546q-63 26 -144 41q0 50 13 94q27 0 71 -1t81.5 -1.5t74.5 -0.5q9 0 23 0.5t32.5 1.5t28.5 1q-4 -201 -4 -683q0 -101 21 -162 q57 7 143 33q31 -33 31 -76q-51 -44 -120.5 -74.5t-123.5 -30.5q-73 0 -112 201q-92 -102 -172.5 -151.5t-166.5 -49.5q-277 0 -280 334q0 363 -4 524q-63 26 -144 41zM241 1162q118 171 230 353q66 16 127 16q123 -183 255 -363q-28 -43 -74 -63q-30 28 -65.5 64.5 t-55.5 58t-65 71.5t-58 64q-126 -150 -225 -258q-47 15 -69 57z" />
<glyph unicode="&#xfc;" horiz-adv-x="1177" d="M30 870q0 50 13 94q27 0 71 -1t81.5 -1.5t74.5 -0.5q3 0 90 3q-4 -201 -4 -579q0 -262 153 -262q58 0 139.5 52t137.5 108q0 395 -4 546q-63 26 -144 41q0 50 13 94q27 0 71 -1t81.5 -1.5t74.5 -0.5q9 0 23 0.5t32.5 1.5t28.5 1q-4 -201 -4 -683q0 -101 21 -162 q57 7 143 33q31 -33 31 -76q-51 -44 -120.5 -74.5t-123.5 -30.5q-73 0 -112 201q-92 -102 -172.5 -151.5t-166.5 -49.5q-277 0 -280 334q0 363 -4 524q-63 26 -144 41zM241 1291q0 50 37 95t87 45q42 0 74.5 -28.5t32.5 -70.5q0 -51 -36.5 -93.5t-88.5 -45.5q-40 0 -73 28.5 t-33 69.5zM614 1291q0 50 37 95t88 45q41 0 73.5 -28.5t32.5 -70.5q0 -51 -36 -93.5t-88 -45.5q-40 0 -73.5 28.5t-33.5 69.5z" />
<glyph unicode="&#xfd;" horiz-adv-x="1156" d="M45 872q0 58 14 93q36 0 109.5 -2t112.5 -2q111 0 223 4q12 -29 12 -93q-75 -24 -162 -30q104 -253 207 -570l25 -150q95 294 243 720q-81 24 -155 30q0 64 14 93q32 0 116 -2t114 -2q63 0 181 4q12 -34 12 -93q-64 -27 -138 -36q-142 -363 -299 -820 q-33 -96 -52.5 -148.5t-49 -123.5t-58 -116t-59.5 -72q-94 -80 -197 -80q-41 0 -94 12q-19 40 -6 78q118 35 202.5 128t149.5 236q-247 670 -344 912q-57 19 -121 30zM447 1167q114 179 225 343q83 23 199 23q16 -20 16 -47q-203 -227 -361 -376q-53 18 -79 57z" />
<glyph unicode="&#xfe;" horiz-adv-x="1113" d="M-26 1478q0 11 1 17q58 25 157.5 46.5t186.5 27.5q22 -68 22 -178q0 -12 -2 -172.5t-2 -255.5v-101q141 125 325 125q165 0 268 -133t103 -350q0 -128 -52 -250t-148 -202.5t-211 -80.5q-65 0 -141.5 28.5t-143.5 75.5v-308q0 -81 6 -154q135 -7 242 -37q0 -63 -12 -90 q-151 4 -318 4q-42 0 -124 -2t-124 -2q-14 28 -14 90q89 9 164 35q8 60 8 115v1237l-4 426q-66 21 -176 32q-11 31 -11 57zM337 249q55 -58 135.5 -101.5t155.5 -43.5q70 0 120 37q41 30 76 116.5t35 191.5q0 58 -16.5 125t-47 130t-80.5 104.5t-110 41.5q-56 0 -131.5 -27 t-136.5 -68v-506z" />
<glyph unicode="&#xff;" horiz-adv-x="1156" d="M45 872q0 58 14 93q36 0 109.5 -2t112.5 -2q111 0 223 4q12 -29 12 -93q-75 -24 -162 -30q104 -253 207 -570l25 -150q95 294 243 720q-81 24 -155 30q0 64 14 93q32 0 116 -2t114 -2q63 0 181 4q12 -34 12 -93q-64 -27 -138 -36q-142 -363 -299 -820 q-33 -96 -52.5 -148.5t-49 -123.5t-58 -116t-59.5 -72q-94 -80 -197 -80q-41 0 -94 12q-19 40 -6 78q118 35 202.5 128t149.5 236q-247 670 -344 912q-57 19 -121 30zM273 1291q0 50 37 95t87 45q42 0 74.5 -28.5t32.5 -70.5q0 -51 -36.5 -93.5t-88.5 -45.5q-40 0 -73 28.5 t-33 69.5zM646 1291q0 50 37 95t88 45q41 0 73.5 -28.5t32.5 -70.5q0 -51 -36 -93.5t-88 -45.5q-40 0 -73.5 28.5t-33.5 69.5z" />
<glyph unicode="&#x152;" horiz-adv-x="1899" d="M93 662q0 107 27.5 213t82 199.5t129 166t176 114.5t215.5 42q163 0 282 -29h256q244 0 494 8q2 -20 2 -65q0 -116 -19 -258q-21 -6 -55 -6q-20 0 -29 2q-13 107 -36 184q-148 6 -469 6q-7 -74 -7 -285v-176q188 0 291 10q14 39 27 105q47 0 82 -14q-18 -83 -25 -179 q-4 -68 -4 -143q-4 0 -13.5 -1t-15.5 -1q-24 0 -55 6q-5 11 -20 92q-82 2 -267 2v-350q0 -95 7 -172q340 0 487 6q52 106 80 209q52 0 86 -12q0 -175 -25 -340q-250 8 -502 8h-289q-156 -28 -297 -28q-145 0 -259.5 53t-187.5 146.5t-111 217.5t-38 269zM277 745 q0 -98 17.5 -187.5t54.5 -168.5t91 -137t132 -91.5t172 -33.5q125 5 207 16q9 57 9 117v694q0 205 -9 272q-104 12 -212 12q-113 0 -190.5 -20.5t-106.5 -46.5q-16 -15 -38.5 -44t-53.5 -82t-52 -133t-21 -167z" />
<glyph unicode="&#x153;" horiz-adv-x="1702" d="M80 465q0 94 31.5 187t88 169t144.5 123t191 47q203 0 307 -123l47 -92q60 98 149.5 156.5t197.5 58.5q87 0 153 -21.5t105.5 -55.5t64.5 -83.5t34 -98.5t9 -107q0 -78 -14 -125q-158 -15 -332 -15q-160 0 -290 10q3 -55 12.5 -105t31 -99.5t51.5 -85.5t77.5 -58 t105.5 -22q135 0 325 74q32 -21 35 -74q-249 -148 -395 -148q-198 0 -296 116l-43 91q-59 -98 -150 -155.5t-208 -57.5q-145 0 -244 64.5t-143.5 173.5t-44.5 256zM254 522q0 -70 16 -138.5t48.5 -132t92.5 -103t138 -39.5q36 0 80 10.5t61 27.5q16 16 36 46.5t43.5 100.5 t23.5 146q0 55 -9.5 110t-31.5 110.5t-55 98t-84.5 69t-114.5 26.5q-37 0 -80.5 -11t-60.5 -28q-14 -12 -35.5 -44.5t-44.5 -102.5t-23 -146zM970 599q91 -7 221 -7q179 0 239 12q-4 61 -14 101.5t-32.5 78t-66.5 56t-110 18.5q-35 0 -79 -12t-54 -21q-32 -25 -62.5 -88.5 t-41.5 -137.5z" />
<glyph unicode="&#x178;" d="M51 1276q0 71 16 100q43 0 130.5 -4t134.5 -4q130 0 250 8q14 -28 14 -100q-61 -26 -176 -39q133 -213 267 -465l46 -133q173 345 318 599q-97 30 -179 38q0 71 16 100q45 0 120.5 -4t121.5 -4q138 0 217 8q15 -30 15 -100q-61 -29 -165 -39q-174 -300 -379 -721v-211 q0 -91 6 -170q125 -12 183 -39q0 -72 -15 -102q-118 12 -266 12q-46 0 -139 -6t-138 -6q-16 29 -16 102q103 10 193 39q10 61 10 125v219q-178 346 -429 759q-85 31 -156 38zM456 1612q0 46 34.5 87.5t81.5 41.5q39 0 69 -26.5t30 -63.5q0 -47 -33.5 -86t-82.5 -42 q-37 0 -68 26.5t-31 62.5zM811 1612q0 46 34 87.5t82 41.5q39 0 69 -26.5t30 -63.5q0 -47 -33.5 -86t-82.5 -42q-37 0 -68 26.5t-31 62.5z" />
<glyph unicode="&#x2c6;" horiz-adv-x="850" d="M124 1162q118 171 230 353q66 16 127 16q123 -183 255 -363q-28 -43 -74 -63q-30 28 -65.5 64.5t-55.5 58t-65 71.5t-58 64q-126 -150 -225 -258q-47 15 -69 57z" />
<glyph unicode="&#x2dc;" horiz-adv-x="850" d="M67 1207q41 80 112.5 146t128.5 66q38 0 78.5 -21.5t69.5 -46.5t68 -46.5t75 -21.5q22 0 71 39.5t77 74.5q35 -16 52 -47q-45 -85 -116 -153t-130 -68q-37 0 -77.5 21.5t-70.5 46.5t-68 46.5t-71 21.5q-24 0 -72.5 -37t-75.5 -76q-41 14 -51 55z" />
<glyph unicode="&#x2000;" horiz-adv-x="945" />
<glyph unicode="&#x2001;" horiz-adv-x="1891" />
<glyph unicode="&#x2002;" horiz-adv-x="945" />
<glyph unicode="&#x2003;" horiz-adv-x="1891" />
<glyph unicode="&#x2004;" horiz-adv-x="630" />
<glyph unicode="&#x2005;" horiz-adv-x="472" />
<glyph unicode="&#x2006;" horiz-adv-x="315" />
<glyph unicode="&#x2007;" horiz-adv-x="315" />
<glyph unicode="&#x2008;" horiz-adv-x="236" />
<glyph unicode="&#x2009;" horiz-adv-x="378" />
<glyph unicode="&#x200a;" horiz-adv-x="105" />
<glyph unicode="&#x2010;" horiz-adv-x="778" d="M121 605q226 33 506 62q32 -65 18 -135q-197 -21 -507 -65q-28 69 -17 138z" />
<glyph unicode="&#x2011;" horiz-adv-x="778" d="M121 605q226 33 506 62q32 -65 18 -135q-197 -21 -507 -65q-28 69 -17 138z" />
<glyph unicode="&#x2012;" horiz-adv-x="778" d="M121 605q226 33 506 62q32 -65 18 -135q-197 -21 -507 -65q-28 69 -17 138z" />
<glyph unicode="&#x2013;" horiz-adv-x="1000" d="M111 474q-10 62 0 125h778q10 -64 0 -125h-778z" />
<glyph unicode="&#x2014;" horiz-adv-x="2048" d="M202 474q-12 61 0 125h1642q15 -61 0 -125h-1642z" />
<glyph unicode="&#x2018;" horiz-adv-x="491" d="M107 1296q0 87 75 174.5t177 153.5q40 -10 61 -45q-124 -162 -124 -268q0 -19 32.5 -70t63.5 -78q-34 -81 -125 -106q-59 27 -109.5 89.5t-50.5 149.5z" />
<glyph unicode="&#x2019;" horiz-adv-x="471" d="M71 1106q124 162 124 268q0 19 -32.5 70t-63.5 78q34 81 125 106q59 -27 109.5 -89.5t50.5 -149.5t-75 -174.5t-177 -153.5q-40 10 -61 45z" />
<glyph unicode="&#x201a;" horiz-adv-x="471" d="M71 -269q124 162 124 268q0 19 -32.5 70t-63.5 78q34 81 125 106q59 -27 109.5 -89.5t50.5 -149.5t-75 -174.5t-177 -153.5q-40 10 -61 45z" />
<glyph unicode="&#x201c;" horiz-adv-x="866" d="M127 1296q0 87 75 174.5t177 153.5q40 -10 61 -45q-124 -162 -124 -268q0 -19 32.5 -70t63.5 -78q-34 -81 -125 -106q-59 27 -109.5 89.5t-50.5 149.5zM502 1296q0 87 75 174.5t177 153.5q40 -10 61 -45q-124 -162 -124 -268q0 -19 32.5 -70t63.5 -78q-34 -81 -125 -106 q-59 27 -109.5 89.5t-50.5 149.5z" />
<glyph unicode="&#x201d;" horiz-adv-x="846" d="M71 1106q124 162 124 268q0 19 -32.5 70t-63.5 78q34 81 125 106q59 -27 109.5 -89.5t50.5 -149.5t-75 -174.5t-177 -153.5q-40 10 -61 45zM446 1106q124 162 124 268q0 19 -32.5 70t-63.5 78q34 81 125 106q59 -27 109.5 -89.5t50.5 -149.5t-75 -174.5t-177 -153.5 q-40 10 -61 45z" />
<glyph unicode="&#x201e;" horiz-adv-x="846" d="M71 -269q124 162 124 268q0 19 -32.5 70t-63.5 78q34 81 125 106q59 -27 109.5 -89.5t50.5 -149.5t-75 -174.5t-177 -153.5q-40 10 -61 45zM446 -269q124 162 124 268q0 19 -32.5 70t-63.5 78q34 81 125 106q59 -27 109.5 -89.5t50.5 -149.5t-75 -174.5t-177 -153.5 q-40 10 -61 45z" />
<glyph unicode="&#x2022;" horiz-adv-x="1070" d="M330 541q0 80 60 135t145 55q86 0 145 -54.5t59 -135.5q0 -83 -59.5 -141.5t-144.5 -58.5t-145 58.5t-60 141.5z" />
<glyph unicode="&#x2026;" horiz-adv-x="2074" d="M178 98q0 51 37.5 85t91.5 34t91.5 -34t37.5 -85q0 -52 -38 -89.5t-91 -37.5q-54 0 -91.5 37.5t-37.5 89.5zM860 98q0 51 37.5 85t91.5 34t91.5 -34t37.5 -85q0 -52 -38 -89.5t-91 -37.5q-54 0 -91.5 37.5t-37.5 89.5zM1544 98q0 51 37.5 85t91.5 34t91.5 -34t37.5 -85 q0 -52 -38 -89.5t-91 -37.5q-54 0 -91.5 37.5t-37.5 89.5z" />
<glyph unicode="&#x202f;" horiz-adv-x="378" />
<glyph unicode="&#x2039;" horiz-adv-x="732" d="M119 484q-8 59 12 105q221 207 400 399q21 -8 43.5 -25.5t31.5 -33.5q-71 -103 -289 -392q270 -342 304 -384q-37 -52 -94 -74q-64 70 -189 194t-219 211z" />
<glyph unicode="&#x203a;" horiz-adv-x="732" d="M111 921q37 51 94 73q65 -71 191 -197t217 -210q7 -61 -13 -105q-255 -242 -399 -397q-22 7 -44 24.5t-32 34.5q40 59 91 128t118 158t80 106q-92 115 -303 385z" />
<glyph unicode="&#x205f;" horiz-adv-x="472" />
<glyph unicode="&#x20ac;" horiz-adv-x="989" d="M64 352q-16 41 0 95h109q-1 14 -1 42q0 42 5 92h-113q-16 41 0 95h131q45 166 161.5 267t287.5 101q148 0 286 -46q0 -54 -14 -135t-31 -130l-86 12q-3 88 -15 143q-64 11 -142 11q-70 0 -127.5 -14t-75.5 -30q-62 -57 -88 -179h335q15 -47 0 -95h-347v-28q0 -55 3 -106 h344q15 -47 0 -95h-330q24 -114 96 -176.5t212 -62.5q70 0 143 19q7 29 21 162q38 17 82 6q32 -116 32 -222q0 -17 -1 -27q-173 -79 -322 -79q-383 0 -438 380h-117z" />
<glyph unicode="&#x2122;" horiz-adv-x="1473" d="M65 1332q0 28 1 42q112 -2 240 -2h416q63 0 82 -2q132 -282 174 -394l9 -42q61 184 163 436q36 2 86 2q74 0 128 2q14 -28 14 -71q-40 -17 -77 -22q-1 -19 -1 -78v-239q0 -44 2 -82q45 -9 76 -22q0 -41 -14 -71q-102 3 -121 3q-7 0 -49 -1.5t-73 -1.5q-15 27 -15 73 q38 4 78 19q2 28 2 57v296l-31 -102q-101 -270 -123 -333q-45 -10 -95 -13l-55 131q-80 192 -85 203l-36 110v-260q0 -46 2 -88q33 -6 73 -22q0 -41 -14 -71q-102 3 -111 3q-7 0 -45 -1.5t-72 -1.5q-16 28 -16 73q47 5 82 19q3 23 3 61l-3 335q-92 2 -255 2q-2 -23 -2 -76 v-239q0 -44 2 -82q51 -8 85 -22q0 -40 -14 -71q-105 3 -130 3q-10 0 -57 -1.5t-74 -1.5q-16 26 -16 73q54 6 88 19q2 16 2 61v247q0 64 -2 90q-75 0 -133 -2q-4 -17 -14 -81q-39 -7 -65 2q-10 71 -10 134z" />
<glyph unicode="&#xe000;" horiz-adv-x="965" d="M0 0v965h965v-965h-965z" />
</font>
</defs>
</svg>
